<?xml version="1.0" encoding="UTF-8"?>
<svg width="18px" height="17px" viewBox="0 0 18 17" version="1.1" xmlns="http://www.w3.org/2000/svg" xmlns:xlink="http://www.w3.org/1999/xlink">
    <!-- Generator: Sketch 60.1 (88133) - https://sketch.com -->
    <title>Group</title>
    <desc>Created with Sketch.</desc>
    <g id="Page-1" stroke="none" stroke-width="1" fill="none" fill-rule="evenodd">
        <g id="3-copy-4" transform="translate(-300.000000, -420.000000)">
            <g id="Group" transform="translate(300.000000, 420.000000)">
                <path d="M17.8291667,7 L9,7 L9,10.2932829 L14.0458333,10.2932829 C13.828125,11.3576159 13.1677083,12.2592242 12.175,12.8628193 L12.175,15 L15.2041667,15 C16.9770833,13.5175024 18,11.333964 18,8.74172185 C18,8.1371807 17.940625,7.55723746 17.8291667,7 Z" id="Path" fill="#4285F4"></path>
                <path d="M15,14.9067215 L12.0917923,12.7375857 C11.2857347,13.2561043 10.254661,13.5624143 9.04357454,13.5624143 C6.6994071,13.5624143 4.71526538,12.0423868 4.0072148,10 L1,10 L1,12.2392318 C2.48110579,15.0632373 5.52532324,17 9.04357454,17 C11.4737481,17 13.5108936,16.2260631 15,14.9067215 Z" id="Path" fill="#34A853"></path>
                <path d="M3.71543895,9 C3.71543895,8.4131618 3.81836529,7.84215735 4,7.30776843 L4,5 L0.965691221,5 C0.351160444,6.20237506 0,7.56308758 0,9 C0,10.4369124 0.351160444,11.7976249 0.965691221,13 L4,10.6922316 C3.81836529,10.1578427 3.71543895,9.5868382 3.71543895,9 Z" id="Path" fill="#FBBC05"></path>
                <path d="M12.4299325,4.72908093 L15,2.25075446 C13.4482048,0.856515775 11.4206186,0 9.00583007,0 C5.50408816,0 2.47415571,1.93676269 1,4.76076818 L3.99310345,7 C4.6978315,4.95761317 6.67266264,3.43758573 9.00583007,3.43758573 C10.3207252,3.43758573 11.5022396,3.87352538 12.4299325,4.72908093 Z" id="Path" fill="#EA4335"></path>
            </g>
        </g>
    </g>
</svg>