<?xml version="1.0" encoding="UTF-8"?>
<svg width="24px" height="24px" viewBox="0 0 24 24" version="1.1" xmlns="http://www.w3.org/2000/svg" xmlns:xlink="http://www.w3.org/1999/xlink">
    <!-- Generator: Sketch 61 (89581) - https://sketch.com -->
    <title>Group</title>
    <desc>Created with Sketch.</desc>
    <g id="Welcome" stroke="none" stroke-width="1" fill="none" fill-rule="evenodd">
        <g id="Dashboard" transform="translate(-30.000000, -969.000000)">
            <g id="Group" transform="translate(30.000000, 969.000000)">
                <path d="M8.55765311,13.1862222 C8.17865264,13.1862222 7.87115287,12.6543096 7.87115287,11.999754 C7.87115287,11.344028 8.17865264,10.8137874 8.55765311,10.8137874 C8.93716339,10.8137874 9.24466316,11.344028 9.24466316,11.999754 C9.24466316,12.6543096 8.93716339,13.1862222 8.55765311,13.1862222 Z M0.804308594,0.804884472 C0.34845442,0.844344239 0,1.21875221 0,1.66856847 L0,21.5182522 C0,21.9403547 0.305503016,22.2982932 0.72741241,22.3725729 L9.93528436,23.986285 C10.1926104,24.0317223 10.4561817,23.9631275 10.6559843,23.7973463 C10.8564667,23.6321086 10.9714286,23.3895397 10.9714286,23.132884 L10.9714286,0.867501771 C10.9714286,0.622717457 10.8690844,0.39302316 10.686063,0.22795259 C10.5022344,0.062631217 10.2602451,-0.0181693429 10.0121381,0.00344156734 L0.804308594,0.804884472 L0.804308594,0.804884472 Z" id="Fill-3" fill="#E63362"></path>
                <polyline id="Fill-4" fill="#0091F4" points="24 11.3307133 17.0538062 6.17142857 17.0538062 8.84795467 11.6571429 8.84795467 11.6571429 13.7813551 17.0538062 13.7813551 17.0538062 16.4571429 24 11.3307133"></polyline>
                <path d="M7.54285714,11.9997825 C7.54285714,12.567349 7.84989086,13.0285714 8.22831691,13.0285714 C8.607252,13.0285714 8.91428571,12.567349 8.91428571,11.9997825 C8.91428571,11.4312012 8.607252,10.9714286 8.22831691,10.9714286 C7.84989086,10.9714286 7.54285714,11.4312012 7.54285714,11.9997825" id="Fill-5" fill="#FFFFFF"></path>
                <path d="M16.4571429,8.22857143 L16.4571429,1.3693314 C16.4571429,1.18942771 16.3867848,1.01324209 16.2627853,0.886067336 C16.140018,0.758934833 15.9687023,0.685714286 15.7942241,0.685714286 L11.6571429,0.685714286 L11.6571429,2.05193449 L15.1297446,2.05193449 L15.1297446,8.22857143 L16.4571429,8.22857143" id="Fill-6" fill="#E63362"></path>
                <path d="M11.6571429,21.3147676 L11.6571429,22.6285714 L15.7942241,22.6285714 C15.9687023,22.6285714 16.140018,22.558731 16.2627853,22.4357892 C16.3867848,22.3138224 16.4571429,22.1441578 16.4571429,21.9713242 L16.4571429,14.4 L15.1297446,14.4 L15.1297446,21.3147676 L11.6571429,21.3147676" id="Fill-7" fill="#E63362"></path>
            </g>
        </g>
    </g>
</svg>