<?xml version="1.0" encoding="UTF-8"?>
<svg width="120px" height="35px" viewBox="0 0 120 35" version="1.1" xmlns="http://www.w3.org/2000/svg" xmlns:xlink="http://www.w3.org/1999/xlink">
    <!-- Generator: Sketch 61 (89581) - https://sketch.com -->
    <title>Group</title>
    <desc>Created with Sketch.</desc>
    <g id="Welcome" stroke="none" stroke-width="1" fill="none" fill-rule="evenodd">
        <g id="Dashboard" transform="translate(-62.000000, -35.000000)" fill="#008EF4">
            <g id="Group" transform="translate(62.000000, 35.000000)">
                <g id="up_blue_svg" transform="translate(0.000000, -0.000000)">
                    <path d="M18.4730758,0.0700686896 L22.7521646,5.84848015 L19.9355741,5.84848015 L17.389802,3.52631565 L14.8440299,5.84848015 L11.9734334,5.84848015 L16.2523909,0.0700686896 L18.4730758,0.0700686896 Z M28.5477579,8.60270657 C25.7311674,8.60270657 23.5646199,9.89878774 22.6978958,11.5189055 L22.6978958,9.03479464 L18.4730758,9.03479464 L18.4730758,34.5785518 L22.806302,34.5785518 L22.806302,25.3438411 C23.7270322,26.7479606 25.7853048,27.8820823 28.3852143,27.8820823 C33.6933081,27.8820823 37.0515355,23.7237233 37.0515355,18.215375 C37.1056729,12.7610264 34.0183953,8.60270657 28.5477579,8.60270657 Z M27.7353026,23.9398523 C24.8645747,23.9398523 22.7521646,21.6716089 22.7521646,18.1613755 C22.7521646,14.7051416 24.8103059,12.437029 27.7353026,12.437029 C30.7143054,12.437029 32.7184406,14.7051416 32.7184406,18.1613755 C32.7184406,21.7256085 30.660168,23.9398523 27.7353026,23.9398523 Z M16.3606657,8.98079507 L11.973302,8.98079507 L11.973302,19.8356236 C11.973302,22.2657349 10.6733473,23.9398523 8.12765401,23.9398523 C5.47359396,23.9398523 4.39029396,21.9957371 4.39029396,19.7274937 L4.39029396,8.9267955 L0.00296967324,8.9267955 L0.00296967324,20.5916176 C0.00296967324,24.6418467 2.60286603,27.9360819 6.99020345,27.9360819 C9.15684288,27.9360819 11.3233903,27.0180892 12.189983,25.3439718 C12.189983,26.0999658 12.2441204,26.9640896 12.3525267,27.3960862 L16.5773467,27.3960862 C16.5706453,27.310053 16.5632868,27.217613 16.5552713,27.1187664 C16.498243,26.410496 16.4148031,25.374698 16.4148031,24.0478514 L16.4148031,8.98079507 L16.3606657,8.98079507 Z" id="Shape"></path>
                </g>
                <g id="upstack_blue_svg" transform="translate(37.546012, 0.000000)">
                    <path d="M82.2209599,9.01838788 L76.3664637,9.01838788 L69.2652949,16.4036539 L69.2652949,0.0699424603 L64.9286359,0.0699424603 L64.9286359,27.346732 L69.2652949,27.346732 L69.2652949,22.2254925 L71.5420507,19.8536614 L76.96271,27.346732 L82.3835007,27.346732 L74.6319054,16.7809699 L82.2209599,9.01838788 Z M23.1348531,12.8997442 L23.1348531,21.4169582 C23.1348531,23.0341574 23.8394599,23.6809848 25.5741498,23.6809848 C26.170396,23.6809848 26.9293146,23.5731803 27.091987,23.519278 L27.091987,27.1309923 C26.820954,27.2389274 25.9535433,27.5623411 24.3815258,27.5623411 C20.9664579,27.5623411 18.8523744,25.5678259 18.8523744,22.117688 L18.8523744,12.8997442 L15.4373065,12.8997442 L15.4373065,9.01838788 L16.3588975,9.01838788 C18.3103085,9.01838788 19.1775877,7.77859611 19.1775877,6.16139695 L19.1775877,3.41215839 L23.1348531,3.41215839 L23.1348531,9.01838788 L26.9834949,9.01838788 L26.9834949,12.8997442 L23.1348531,12.8997442 Z M9.25772859,16.4575562 L6.43890686,15.9184028 C5.3004632,15.7027936 4.5958564,15.0020639 4.5958564,13.9777899 C4.5958564,12.8458419 5.67998826,11.8754702 7.25200575,11.8754702 C9.69130243,11.8754702 10.5044013,13.5465716 10.6670737,14.6247479 L14.4073549,13.5465716 C14.0821417,11.7137633 12.4559439,8.42543661 7.30618605,8.42543661 C3.45741275,8.42543661 0.530230428,11.1207076 0.530230428,14.3551059 C0.530230428,16.8887745 2.21074001,18.9910942 5.51731588,19.6919545 L8.22777703,20.2848797 C9.69130243,20.6082934 10.3960407,21.3630559 10.3960407,22.3332971 C10.3960407,23.4653757 9.47444976,24.4357474 7.6313993,24.4357474 C5.3004632,24.4357474 4.05379047,22.9802551 3.89111809,21.3091537 L0.0423447911,22.3871994 C0.259197464,24.4357474 2.3191006,27.9396571 7.6313993,27.9396571 C12.3474518,27.9396571 14.6242076,24.8669657 14.6242076,22.0637857 C14.5700273,19.314508 12.7811571,17.2121882 9.25772859,16.4575562 Z M44.1130149,15.1098685 C44.1130149,11.4442519 41.9989315,8.26378196 36.3072393,8.26378196 C31.7537277,8.26378196 28.8807256,11.0669359 28.5555124,14.2474319 L32.5668265,15.1637708 C32.7294989,13.3309625 34.0304835,11.8215679 36.3614196,11.8215679 C38.8007162,11.8215679 39.8306678,13.061451 39.8306678,14.6247479 C39.8306678,15.2715753 39.5054545,15.8107287 38.475503,15.9185333 L33.7594505,16.6192631 C30.6154155,17.0506119 28.1759873,18.8834202 28.1759873,22.1717208 C28.1759873,25.0825748 30.5612352,27.724048 34.409877,27.724048 C37.3913711,27.724048 39.2344216,26.2146534 40.1017008,24.8130634 C40.1017008,25.9571492 40.202171,26.6681896 40.2451733,26.9724178 L40.2451733,26.9725483 C40.2568773,27.0552942 40.2643731,27.1080218 40.2643731,27.1311228 L44.3298676,27.1311228 C44.2756873,26.9694159 44.1130149,25.8373374 44.1130149,24.1662359 L44.1130149,15.1098685 Z M39.8306678,19.5302476 C39.8306678,23.0880597 37.7707647,24.2740405 35.2772877,24.2740405 C33.5425978,24.2740405 32.5668265,23.141962 32.5668265,21.9022093 C32.5668265,20.3928148 33.6509584,19.6380522 35.0062547,19.4224431 L39.8306678,18.7217133 L39.8306678,19.5302476 Z M50.0216914,18.1286576 C50.0216914,21.8481765 52.4068078,23.896594 55.1714492,23.896594 C58.0444512,23.896594 59.3453043,21.9020788 59.8331899,20.4465865 L63.6819632,21.8481765 C62.7605037,24.7052588 59.9958623,27.8318526 55.1714492,27.8318526 C49.7506584,27.8318526 45.6308521,23.6270825 45.6308521,18.0747553 C45.6308521,12.4144931 49.7506584,8.37153433 55.0629571,8.37153433 C60.0500426,8.37153433 62.7605037,11.4442519 63.5192908,14.4090082 L59.5621569,15.8645005 C59.1827634,14.2473014 57.9359591,12.4144931 55.1171374,12.4144931 C52.4068078,12.4144931 50.0216914,14.4090082 50.0216914,18.1286576 Z" id="Shape"></path>
                </g>
            </g>
        </g>
    </g>
</svg>