<?xml version="1.0" encoding="UTF-8"?>
<svg width="267px" height="224px" viewBox="0 0 267 224" version="1.1" xmlns="http://www.w3.org/2000/svg" xmlns:xlink="http://www.w3.org/1999/xlink">
    <!-- Generator: Sketch 61 (89581) - https://sketch.com -->
    <title>Group</title>
    <desc>Created with Sketch.</desc>
    <g id="Welcome" stroke="none" stroke-width="1" fill="none" fill-rule="evenodd">
        <g id="Dashboard" transform="translate(-411.000000, -106.000000)">
            <g id="Group" transform="translate(411.000000, 106.000000)">
                <path d="M0,122.302518 L0,150.696932 C0,155.835168 4.1612386,160 9.29577578,160 L111.038238,160 C116.17218,160 120.334014,155.835168 120.334014,150.696932 L120.334014,126.704591 L133,113.386904 L9.32436717,113 C4.17970387,112.983952 0,117.153553 0,122.302518" id="Fill-1" fill="#F1F0EC"></path>
                <polyline id="Fill-2" fill="#D4D5CF" points="107.990401 129 15 128.608505 15.0095992 126 108 126.392042 107.990401 129"></polyline>
                <polyline id="Fill-3" fill="#D4D5CF" points="107.990401 138 15 137.608029 15.0095992 135 108 135.391971 107.990401 138"></polyline>
                <polyline id="Fill-4" fill="#D4D5CF" points="125.98854 139 89 138.821161 89.0114596 136 126 136.178839 125.98854 139"></polyline>
                <path d="M134,178.30204 L134,206.69741 C134,211.835115 138.16122,216 143.295734,216 L245.037741,216 C250.17166,216 254.333475,211.835115 254.333475,206.69741 L254.333475,182.704765 L267,169.386313 L143.324325,169 C138.179685,168.983952 134,173.153606 134,178.30204" id="Fill-5" fill="#F1F0EC"></path>
                <path d="M74,5 L134.571447,5 C137.569807,5 140,7.40112868 140,10.3636296 L140,39.6357763 C140,42.5982773 137.569807,45 134.571447,45 L83.1724452,45 C80.1740849,45 77.7432908,42.5982773 77.7432908,39.6357763 L77.7432908,8.69852231 L74,5" id="Fill-9" fill="#F1F0EC"></path>
                <path d="M110,33.3333271 L110,52.6667049 C110,56.1643971 107.215689,59 103.779922,59 L35.6974131,59 C32.2610454,59 29.4767342,56.1643971 29.4767342,52.6667049 L29.4767342,36.3310868 L21,27.2637663 L103.760691,27 C107.203068,26.9890175 110,29.8276799 110,33.3333271" id="Fill-10" fill="#D4D5CF"></path>
                <polyline id="Fill-11" fill="#F1F0EC" points="40.0059332 39 101 38.6086957 100.994067 36 40 36.3921299 40.0059332 39"></polyline>
                <polyline id="Fill-12" fill="#F1F0EC" points="40.0059332 45 101 44.6086957 100.994067 42 40 42.3921299 40.0059332 45"></polyline>
                <polyline id="Fill-13" fill="#F1F0EC" points="40.0070783 51 64 50.8803571 63.9923319 49 40 49.1190476 40.0070783 51"></polyline>
                <path d="M238,121.135411 L238,139.864028 C238,143.252417 235.215107,146 231.779363,146 L163.696713,146 C160.260969,146 157.476076,143.252417 157.476076,139.864028 L157.476076,124.03949 L149,115.254931 L231.760132,115 C235.202486,114.989361 238,117.739315 238,121.135411" id="Fill-14" fill="#D4D5CF"></path>
                <polyline id="Fill-15" fill="#F1F0EC" points="168.005933 126 229 125.73858 228.994067 124 168 124.26142 168.005933 126"></polyline>
                <polyline id="Fill-16" fill="#F1F0EC" points="168.005933 133 229 132.607978 228.994067 130 168 130.392847 168.005933 133"></polyline>
                <polyline id="Fill-17" fill="#F1F0EC" points="168.007668 139 192 138.821429 191.992922 136 168 136.179464 168.007668 139"></polyline>
                <path d="M179.113651,214.497482 C168.965454,204.613262 168.798845,189.324134 171.438826,176.037867 C171.879323,173.820392 172.019562,171.428468 173.399784,169.645615 C174.781205,167.862763 177.474525,166.930572 179.317418,168.197872 C180.845071,169.24816 181.251407,171.292985 181.916646,173.038071 C182.802433,175.359855 184.351063,177.414871 186.328802,178.890191 C187.627517,179.859549 189.310392,180.597509 190.838645,180.053781 C192.935048,179.307429 193.597291,176.687103 193.946691,174.466631 C194.596948,170.327224 195.248403,166.189615 195.89866,162.052007 C196.24806,159.831534 196.612444,157.565501 197.646261,155.573431 C198.680679,153.58136 200.52477,151.875241 202.730848,151.629454 C204.937525,151.384267 207.34677,153.02804 207.436667,155.271892 C207.474424,156.205882 207.136411,157.113494 207.047712,158.043886 C206.959014,158.974878 207.220914,160.063533 208.053362,160.463386 C208.8954,160.868634 209.885468,160.385454 210.654988,159.844723 C213.309952,157.979742 215.335636,155.349225 217.25644,152.71751 C219.177843,150.086394 221.068082,147.379144 223.543851,145.276769 C226.020819,143.174394 229.209773,141.708666 232.414908,142.04917 C235.621242,142.389675 238.683141,144.903892 238.975007,148.153671 C239.268672,151.413042 236.925351,154.287547 234.526294,156.493032 C230.966964,159.766791 226.939568,162.517203 222.611917,164.632167 C221.831609,165.013436 220.985976,165.425878 220.584435,166.204003 C219.860462,167.603788 221.020736,169.302114 222.400958,170.027484 C223.963971,170.848771 225.785887,170.970465 227.481349,171.456643 C229.17681,171.94402 230.925012,173.013492 231.31157,174.75498 C231.849155,177.171483 229.563968,179.23729 227.444191,180.488404 C223.199245,182.993029 218.531782,184.756698 213.709096,185.679298 C211.980073,186.009011 210.177933,186.251201 208.674852,187.182193 C207.17177,188.113784 206.051651,189.976967 206.590435,191.669298 C207.129818,193.363427 209.08718,194.197903 210.848566,194.160136 C212.608155,194.123568 214.289832,193.446156 216.018855,193.097858 C219.254555,192.446823 223.155495,193.301082 224.675957,196.254718 C225.675614,198.197032 225.393936,200.626723 224.406864,202.584623 C223.420392,204.543123 221.813629,206.105367 220.147534,207.516542 C214.325791,212.447861 207.317404,216.038145 199.846945,217.333021 C192.377086,218.627297 185.7181,218.217853 179.113651,214.497482" id="Fill-18" fill="#E63362"></path>
                <path d="M178,223.925282 C179.351334,218.767958 181.53638,212.772725 184.620517,206.428808 C187.692657,200.077775 191.643495,193.39229 196.019585,186.539578 C197.119606,184.830551 198.207031,183.141686 199.278262,181.477728 C200.351291,179.819106 201.416524,178.172937 202.55793,176.628171 C204.828147,173.52678 207.249512,170.715365 209.63309,168.118617 C212.015469,165.52009 214.372656,163.139193 216.59249,160.929081 C218.818922,158.723713 220.933193,156.705733 222.938901,154.94808 C226.941921,151.416764 230.504692,148.952254 233.020224,147.358863 C234.276791,146.557719 235.271848,145.968277 235.952613,145.57749 C236.2795,145.392474 236.535012,145.247188 236.728745,145.137483 C236.905085,145.041417 236.996253,144.99457 237,145 C237.004051,145.007023 236.91888,145.06573 236.750338,145.174249 C236.562003,145.292256 236.311889,145.449402 235.994599,145.64865 C235.329428,146.062564 234.348766,146.673354 233.106595,147.493474 C230.621652,149.126596 227.098467,151.618977 223.132035,155.16749 C221.14372,156.933445 219.046844,158.957948 216.835406,161.172211 C214.626368,163.390626 212.282377,165.775673 209.912594,168.375386 C207.543411,170.972727 205.137641,173.778805 202.884818,176.865964 C201.751209,178.4048 200.697972,180.036737 199.623143,181.700696 C198.552512,183.363469 197.466886,185.052333 196.367465,186.760767 C191.996173,193.608142 188.044136,200.271093 184.961799,206.594255 C181.869266,212.910301 179.664426,218.869954 178.281903,224" id="Fill-19" fill="#132529"></path>
                <path d="M203.063516,177 C203.038036,177 203.020145,176.635554 203.008219,175.976053 C202.993039,175.317176 202.999544,174.363243 203.022314,173.184267 C203.065685,170.828189 203.221819,167.576315 203.405602,163.991877 C203.589927,160.405563 203.705944,157.160565 203.717871,154.809489 C203.726545,153.634263 203.726003,152.682205 203.717328,152.025204 C203.712449,151.366953 203.722208,151.001883 203.74823,151 C203.774252,150.998132 203.813286,151.359451 203.86262,152.017078 C203.915207,152.673454 203.957493,153.626762 203.981889,154.805738 C204.037729,157.164316 203.962915,160.424942 203.778589,164.014381 C203.589385,167.551935 203.418071,170.751299 203.286333,173.195519 C203.233204,174.300106 203.189291,175.231535 203.15351,175.979178 C203.12044,176.636179 203.090081,177.000624 203.063516,177" id="Fill-20" fill="#132529"></path>
                <path d="M232,176.103461 C231.995849,176.141128 231.587716,176.115482 230.855441,176.036142 C230.122575,175.963213 229.063203,175.850213 227.75126,175.766064 C225.127967,175.57132 221.498536,175.474348 217.489955,175.604979 C213.480783,175.745227 209.856675,176.081021 207.24048,176.426432 C205.930312,176.586716 204.873897,176.755014 204.142806,176.864808 C203.411714,176.97941 203.005355,177.025091 203,176.986623 C202.995891,176.948155 203.395152,176.831148 204.12092,176.649226 C204.846688,176.472914 205.901329,176.24451 207.210905,176.032135 C209.826509,175.585745 213.461263,175.186639 217.482857,175.045589 C221.502085,174.91576 225.145121,175.075242 227.77078,175.371766 C229.085088,175.506405 230.143869,175.679511 230.873186,175.82056 C231.602503,175.966418 232.002356,176.064191 232,176.103461" id="Fill-21" fill="#132529"></path>
                <path d="M184.995249,206 C184.980483,206.002888 184.929764,205.875984 184.846944,205.627465 C184.754494,205.33312 184.6415,204.973561 184.505393,204.538212 C184.213277,203.591137 183.830637,202.209889 183.381228,200.498457 C182.480483,197.076181 181.399333,192.313194 180.282872,187.042007 C179.166411,181.76847 178.135338,177.002546 177.313561,173.567344 C176.909092,171.897626 176.575245,170.523428 176.32807,169.501738 C176.22278,169.058752 176.13675,168.693905 176.066771,168.393685 C176.011558,168.139878 175.989729,168.00475 176.004495,168 C176.019904,167.997112 176.069981,168.12519 176.153443,168.373122 C176.24525,168.668054 176.358245,169.026439 176.494352,169.461787 C176.786468,170.408862 177.16975,171.789523 177.618517,173.500955 C178.519261,176.923231 179.601054,181.687393 180.716873,186.960342 C181.833334,192.232117 182.865049,196.997454 183.686184,200.433243 C184.091937,202.102961 184.4245,203.477747 184.671675,204.498261 C184.776323,204.941248 184.862353,205.30727 184.933616,205.606315 C184.988187,205.860709 185.010658,205.996425 184.995249,206" id="Fill-22" fill="#132529"></path>
                <path d="M225,200.008633 C225.001194,200.022957 224.862351,200.053993 224.597288,200.101143 C224.28414,200.151875 223.899467,200.213946 223.433652,200.289745 C222.360174,200.451489 220.911039,200.671127 219.148756,200.937318 C215.531027,201.485218 210.542901,202.298712 205.032462,203.205313 C199.52082,204.112512 194.520672,204.880646 190.890322,205.353941 C189.075146,205.59208 187.604373,205.769342 186.586192,205.870208 C186.11617,205.914971 185.727891,205.950782 185.41294,205.981221 C185.143669,206.00211 185.001219,206.005691 185,205.991367 C184.998214,205.977043 185.137658,205.94541 185.402722,205.897066 C185.715269,205.847528 186.09934,205.785457 186.566958,205.710255 C187.639835,205.547317 189.087768,205.328873 190.850652,205.062682 C194.46778,204.515379 199.456507,203.701288 204.96875,202.79409 C210.47919,201.887488 215.478736,201.118757 219.108486,200.646059 C220.924262,200.40792 222.394434,200.230658 223.413216,200.129195 C223.884441,200.085029 224.271518,200.048025 224.58707,200.018779 C224.856341,199.99789 224.997588,199.994309 225,200.008633" id="Fill-23" fill="#132529"></path>
                <path d="M79.4221473,81 C77.5419787,79.4366777 76.7022268,76.6680907 77.0944353,74.1519048 C77.4872519,71.6350668 79.0019673,69.4078054 80.963618,67.96514 C81.8708663,67.2985921 82.9945893,66.7696582 84.0502079,67.10228 C85.036506,67.4133792 85.723631,68.4425501 85.9230797,69.5245491 C86.1231364,70.6058959 85.9072697,71.7296357 85.5710041,72.7718506 C84.4174854,76.3459041 82.6893355,79.5775528 79.4221473,81" id="Fill-24" fill="#334F55"></path>
                <path d="M75.8541813,86.4517662 C72.1516017,82.7341574 66.7532723,81.1776846 61.871384,82.4217927 C60.6282797,82.7388395 59.2290278,83.4618937 59.0242741,84.8484721 C58.8195203,86.2370572 59.9459697,87.4149466 61.0517614,88.12061 C65.6529487,91.0569724 71.884875,90.5051503 76,86.7969058" id="Fill-25" fill="#334F55"></path>
                <path d="M58.2811118,60.2298949 C60.3564546,59.6710904 62.630239,60.1737731 64.4665917,61.2750887 C66.3029445,62.3764044 67.7393422,64.029283 68.8900577,65.814923 C71.1165355,69.2691317 71.9010864,73.9121577 72,78 C67.3805499,77.8159445 63.4338353,74.2500957 61.5471042,72.3178147 C58.5649509,69.2630971 55.0642691,61.9636373 58.2811118,60.2298949" id="Fill-26" fill="#334F55"></path>
                <path d="M83,92 C82.7306878,91.5276187 82.2922159,91.1939994 81.8543546,90.3265892 C80.9926777,88.5941308 79.8311545,86.1306622 79.2681027,83.1983553 C78.7074937,80.261915 79.0873399,77.4902177 79.8415361,75.6798163 C80.2091686,74.7698918 80.6213811,74.081396 80.9523725,73.6420814 C81.2809212,73.2004049 81.4989358,72.9848809 81.5196991,73.0008238 C81.5990882,73.0504238 80.7862662,73.982196 80.1499322,75.787283 C79.4958883,77.5746558 79.1795534,80.2571912 79.7242846,83.1186409 C80.2726799,85.9812717 81.3688598,88.4347021 82.1523689,90.1943225" id="Fill-27" fill="#132529"></path>
                <path d="M82.8613073,92 C82.2720098,91.2472235 81.5007147,90.2607268 80.5702449,89.0712472 C78.6420071,86.5942763 75.9699788,83.1795245 72.9684821,79.4452197 C69.9669855,75.7132347 67.2042509,72.3703968 65.1981814,69.9543207 C64.2361108,68.789779 63.4384816,67.8241605 62.8298725,67.0876227 C62.2745166,66.4067601 61.9784048,66.0210927 62.0012276,66.0007944 C62.0246357,65.9810761 62.3652228,66.3290467 62.9609575,66.9762721 C63.5572775,67.6217576 64.4046487,68.5705575 65.4386991,69.7542376 C67.5073851,72.1198579 70.3110838,75.4354381 73.3160916,79.1709028 C76.3205142,82.9086873 78.955675,86.3576562 80.8212962,88.883923 C81.7541068,90.1470564 82.4978974,91.1776294 83,91.8979286" id="Fill-28" fill="#132529"></path>
                <path d="M65,84.61989 C64.9929435,84.587782 65.2704694,84.5002722 65.7823637,84.3686926 C66.0371121,84.2975515 66.3518012,84.2245217 66.7234342,84.1798224 C67.0944677,84.1300866 67.5164508,84.0469837 67.9881849,84.0375402 C68.9298547,83.9601034 70.0591392,84.0016548 71.2993142,84.1697493 C72.5346939,84.3649152 73.8779671,84.704252 75.2284331,85.2450503 C76.5723057,85.8047357 77.7813114,86.5079624 78.8182871,87.2414084 C79.8402776,87.9975187 80.6992292,88.7687387 81.3435927,89.4940003 C81.6852552,89.8358553 81.9430006,90.1965974 82.1839626,90.4962715 C82.4297198,90.7934273 82.6143375,91.0710665 82.7569966,91.3040064 C83.0495076,91.7635905 83.0075491,91.9789026 82.9817745,91.9977896 C82.9098456,92.0525619 82.4506991,91.0836578 81.1164171,89.7332359 C80.4558696,89.052044 79.5945204,88.3248937 78.5839186,87.6065574 C77.5583317,86.9108855 76.374501,86.2366189 75.0635959,85.690784 C73.7460973,85.1632066 72.4399875,84.8200924 71.2369758,84.6047804 C70.0297682,84.4171693 68.9274571,84.3416212 68.0019712,84.3749883 C66.1498008,84.423465 65.0181186,84.7111772 65,84.61989" id="Fill-29" fill="#132529"></path>
                <path d="M165.135727,216 L95.9920453,215.714352 C87.6762456,215.680669 80.9648186,209.633349 81,202.206655 L81.7328822,47.395033 C81.7676037,39.9640624 88.5430858,33.9659287 96.8636748,34 L166.007955,34.2856438 C174.324353,34.3198608 181.035181,40.3666468 181,47.7933403 L180.267716,202.605497 C180.231798,210.037002 173.456914,216.034601 165.135727,216" id="Fill-30" fill="#3F3F3F"></path>
                <path d="M165.594799,40.2824699 L152.310031,40.227801 C150.528485,40.2203702 149.077382,41.5658635 149.070263,43.2314091 L149.058991,45.3873829 C149.051872,47.05399 147.600769,48.3989525 145.819223,48.3915218 L119.923625,48.2843069 C118.142079,48.277407 116.704621,46.9202368 116.712334,45.2536297 L116.722419,43.0976559 C116.730131,41.4315796 115.29208,40.0744094 113.510534,40.0675094 L108.838055,40.0478711 L97.2102489,40 C91.4355008,39.9762176 86.7333585,44.1464506 86.709035,49.3129326 L86,199.325615 C85.9757714,204.489443 90.6334195,208.693646 96.4052013,208.71753 L164.789751,209 C170.563906,209.023782 175.266641,204.85408 175.290965,199.687598 L176,49.6743846 C176.024229,44.5105565 171.36658,40.3063544 165.594799,40.2824699" id="Fill-31" fill="#FAF9F6"></path>
                <path d="M127,214.50808 C126.996835,215.336994 126.323165,216.004384 125.494954,216 C124.666112,215.995573 123.996857,215.320107 124,214.491928 C124.003165,213.663748 124.676835,212.99489 125.505677,213 C126.333888,213.004435 127.003143,213.679166 127,214.50808" id="Fill-32" fill="#334F55"></path>
                <path d="M132,214.508438 C131.996839,215.336419 131.323168,216.004383 130.494325,216 C129.666113,215.995574 128.996857,215.321005 129,214.492289 C129.002534,213.664308 129.676836,212.996345 130.505048,213 C131.333891,213.004419 132.002516,213.679723 132,214.508438" id="Fill-33" fill="#334F55"></path>
                <path d="M136,214.507704 C135.997466,215.336419 135.323165,216.004383 134.494323,216 C133.666112,215.995574 132.996857,215.321005 133,214.492289 C133.003165,213.663574 133.676835,212.996345 134.505046,213 C135.333888,213.003685 136.003143,213.678989 136,214.507704" id="Fill-34" fill="#334F55"></path>
                <path d="M107,122 C108.125,122.166815 176,136 176,136 L176,122 L107,122" id="Fill-35" fill="#E4E4DE"></path>
                <path d="M94,190 C94,190 167.636882,179.690245 166.995839,180.007159 C166.354796,180.324665 94,180.007159 94,180.007159 L94,190" id="Fill-36" fill="#E4E4DE"></path>
                <path d="M171.4995,10 C171.6435,10 171.7605,13.8055326 171.7605,18.4996946 C171.7605,23.1944674 171.6435,27 171.4995,27 C171.3555,27 171.2395,23.1944674 171.2395,18.4996946 C171.2395,13.8055326 171.3555,10 171.4995,10" id="Fill-37" fill="#132529"></path>
                <g id="Group-41" transform="translate(181.000000, 0.000000)" fill="#132529">
                    <path d="M19.7172305,30.1193995 C19.7519829,30.2001743 16.421058,31.8046544 12.2796375,33.7034729 C8.1370389,35.6029033 4.75192389,37.0770424 4.71776055,36.9968796 C4.68359722,36.9161048 8.01334408,35.3116246 12.1559426,33.4121943 C16.2973631,31.5133758 19.6836562,30.0392367 19.7172305,30.1193995" id="Fill-38"></path>
                    <path d="M19.7164421,0 C19.7260274,0.00580176594 19.6703127,0.118403744 19.5558879,0.327609604 C19.4222924,0.565119786 19.2527519,0.865391727 19.043672,1.23519385 C18.5967562,2.02156176 17.9269815,3.1457356 17.0894636,4.52895553 C15.4120314,7.29354944 12.9977273,11.0500252 10.2635129,15.1473836 C7.5281003,19.2459725 5.0880356,22.9778358 3.36447407,25.7092029 C2.52156442,27.0493511 1.8314209,28.1464512 1.32759217,28.9469713 C1.0987425,29.3032365 0.913026801,29.5930482 0.765652405,29.821944 C0.634453247,30.0206896 0.560766049,30.1216006 0.551779806,30.1162791 C0.542793562,30.110525 0.59790919,29.9979231 0.712334026,29.7881019 C0.846528598,29.551207 1.01546998,29.2503198 1.22454991,28.881133 C1.67146577,28.0947651 2.34124046,26.9705912 3.17875837,25.5873713 C4.85559144,22.8227774 7.27109373,19.0656863 10.0059072,14.9670973 C12.7401216,10.869739 15.1801863,7.13849098 16.9037478,4.40712388 C17.7466575,3.06697575 18.436801,1.96987561 18.9406297,1.16935554 C19.1694794,0.813090262 19.3557942,0.523278614 19.5025695,0.293767479 C19.6337687,0.0956372235 19.7068568,-0.00588914977 19.7164421,0" id="Fill-40"></path>
                </g>
                <path d="M251.74109,71 L117.25891,71 C114.35446,71 112,73.3512106 112,76.2516526 L112,117.909243 C112,120.809685 114.35446,123.160895 117.25891,123.160895 L127.278039,123.160895 C128.085129,127.511261 129.029419,133 129.029419,133 L138.097101,123.160895 L251.74109,123.160895 C254.64554,123.160895 257,120.809685 257,117.909243 L257,76.2516526 C257,73.3512106 254.64554,71 251.74109,71" id="Fill-42" fill="#E63362"></path>
                <path d="M186,93.5005 C186,93.6435 169.880588,93.7605 150.001201,93.7605 C130.115808,93.7605 114,93.6435 114,93.5005 C114,93.3565 130.115808,93.2395 150.001201,93.2395 C169.880588,93.2395 186,93.3565 186,93.5005" id="Fill-43" fill="#F1F0EC"></path>
                <path d="M186,87 C186,87.0613608 169.880588,87.1107904 150.001201,87.1107904 C130.115808,87.1107904 114,87.0613608 114,87 C114,86.9386392 130.115808,86.8892096 150.001201,86.8892096 C169.880588,86.8892096 186,86.9386392 186,87" id="Fill-44" fill="#F1F0EC"></path>
                <path d="M186,99.5005 C186,99.6445 169.880588,99.7605 150.001201,99.7605 C130.115808,99.7605 114,99.6445 114,99.5005 C114,99.3565 130.115808,99.2395 150.001201,99.2395 C169.880588,99.2395 186,99.3565 186,99.5005" id="Fill-45" fill="#F1F0EC"></path>
                <path d="M161,106.4995 C161,106.6435 150.477594,106.7605 137.501197,106.7605 C124.520011,106.7605 114,106.6435 114,106.4995 C114,106.3555 124.520011,106.2395 137.501197,106.2395 C150.477594,106.2395 161,106.3555 161,106.4995" id="Fill-46" fill="#F1F0EC"></path>
                <path d="M180.319241,146 L44.6807592,146 C42.6482258,146 41,147.641309 41,149.665313 L41,193.631236 C41,195.656428 42.6482258,197.297143 44.6807592,197.297143 L143.191791,197.297143 L152.159762,207 C152.159762,207 153.100242,201.5466 153.892727,197.297143 L180.319241,197.297143 C182.351774,197.297143 184,195.656428 184,193.631236 L184,149.665313 C184,147.641309 182.351774,146 180.319241,146" id="Fill-47" fill="#0091F4"></path>
                <path d="M175,168.501 C175,168.644 158.880588,168.76 139.001802,168.76 C119.115808,168.76 103,168.644 103,168.501 C103,168.357 119.115808,168.24 139.001802,168.24 C158.880588,168.24 175,168.357 175,168.501" id="Fill-48" fill="#F1F0EC"></path>
                <path d="M175,162 C175,162.061361 158.880588,162.11079 139.001802,162.11079 C119.115808,162.11079 103,162.061361 103,162 C103,161.938639 119.115808,161.88921 139.001802,161.88921 C158.880588,161.88921 175,161.938639 175,162" id="Fill-49" fill="#F1F0EC"></path>
                <path d="M175,174.999787 C175,175.061148 158.880588,175.111003 139.001802,175.111003 C119.115808,175.111003 103,175.061148 103,174.999787 C103,174.938852 119.115808,174.888997 139.001802,174.888997 C158.880588,174.888997 175,174.938852 175,174.999787" id="Fill-50" fill="#F1F0EC"></path>
                <path d="M151,181.5005 C151,181.6445 140.477129,181.7605 127.500898,181.7605 C114.519877,181.7605 104,181.6445 104,181.5005 C104,181.3565 114.519877,181.2395 127.500898,181.2395 C140.477129,181.2395 151,181.3565 151,181.5005" id="Fill-51" fill="#F1F0EC"></path>
                <path d="M207.003744,53 C207.084552,51.8775465 206.09616,50.3288293 205.179531,49.4396604 C204.263505,48.5498809 203.695436,47.3431517 204.173048,45.548936 C204.542715,44.1620524 205.410497,44.2658702 205.75363,43.4505952 C206.007513,42.8472306 205.900774,42.1589797 205.953842,41.5049276 C206.132946,39.2600205 208.572868,37.5 210.72755,38.0612304 C211.333611,35.9256373 213.300142,34.257835 215.481961,34.0276038 C217.664383,33.7979833 219.927613,35.0199798 220.955202,36.9827467 C222.201094,36.3268626 223.770822,36.3494582 224.997416,37.0407625 C226.224011,37.7320669 227.070084,39.0707057 227.17622,40.4881239 C228.390753,39.6001765 230.252958,39.9427752 231.214213,41.1061452 C232.174864,42.2695151 232.233963,44.0509063 231.504881,45.3754992 C230.775196,46.7007028 229.360451,47.5623905 227.880577,47.7932324 C226.4001,48.0234636 224.869571,47.6692617 223.529,46.9920033 C222.18843,46.3153556 221.021537,45.3303079 219.958971,44.2609847" id="Fill-52" fill="#132529"></path>
                <path d="M243,96.0002957 C243,109.807347 231.583611,121 217.5,121 C203.416979,121 192,109.807347 192,96.0002957 C192,82.1932443 203.416979,71 217.5,71 C231.583611,71 243,82.1932443 243,96.0002957" id="Fill-53" fill="#D4D5CF"></path>
                <path d="M244,96.1461393 L240.946324,89 L230,95.2754108 L239.75379,109 C239.75379,109 243.721466,104.297368 244,96.1461393" id="Fill-54" fill="#EA8E6C"></path>
                <path d="M214.952541,80 C218.666597,80.0058242 221.730753,77.20935 221.913688,73.6457996 C222.066534,70.677827 222.194709,67.8201034 222.194709,67.8201034 C222.194709,67.8201034 227.878923,67.4205237 228.404259,62.0334901 C228.928391,56.6464566 229,44.1877383 229,44.1877383 C222.729071,40.9963511 215.152325,41.3154315 209.197921,45.0213139 L208.657542,45.3584775 L208.000421,73.2368867 C207.958298,76.9556023 211.082028,79.9941576 214.952541,80" id="Fill-55" fill="#F1AD92"></path>
                <path d="M218.31507,52.0513733 C218.838914,52.2250915 219.122172,52.7907896 218.949274,53.314914 C218.77564,53.8390384 218.209125,54.1226297 217.685282,53.9489115 C217.160703,53.7751932 216.877445,53.2094952 217.051078,52.6853708 C217.223976,52.1612464 217.790492,51.8769126 218.31507,52.0513733" id="Fill-56" fill="#132529"></path>
                <path d="M219.98666,52.9864031 C219.887382,53.08895 219.334082,52.5795887 218.52089,52.5242674 C217.708329,52.4561277 217.092427,52.8757604 217.008958,52.7590458 C216.967223,52.7077724 217.070295,52.5181955 217.339673,52.3272694 C217.603993,52.1376926 218.049162,51.967006 218.556301,52.005461 C219.06344,52.0439161 219.480786,52.2807185 219.71665,52.5087504 C219.957572,52.7381316 220.034086,52.9412015 219.98666,52.9864031" id="Fill-57" fill="#132529"></path>
                <path d="M227.314481,52.0513733 C227.83827,52.2250915 228.122235,52.7907896 227.949355,53.314914 C227.775004,53.8390384 227.209282,54.1226297 226.685493,53.9489115 C226.160968,53.7751932 225.877004,53.2094952 226.051355,52.6853708 C226.22497,52.1612464 226.790692,51.8769126 227.314481,52.0513733" id="Fill-58" fill="#132529"></path>
                <path d="M227.986659,52.986562 C227.888006,53.0883811 227.334663,52.57996 226.521407,52.5246675 C225.708784,52.455889 225.092202,52.875977 225.008726,52.7593234 C224.96762,52.7074024 225.0707,52.5185988 225.340099,52.3277723 C225.605071,52.1376201 226.050275,51.9670226 226.556189,52.0054576 C227.063367,52.0438926 227.480746,52.2805714 227.716628,52.5084843 C227.957569,52.7384201 228.034089,52.941384 227.986659,52.986562" id="Fill-59" fill="#132529"></path>
                <path d="M222,58.8447056 C221.999123,58.7832065 222.708478,58.7247823 223.855036,58.679888 C224.152649,58.674353 224.390564,58.6405285 224.423925,58.5322901 C224.491524,58.4111368 224.402855,58.1860501 224.281702,57.9332887 C224.051689,57.3994764 223.819041,56.8582842 223.574981,56.2918773 C222.607518,53.9555259 221.96225,52.0342935 222.132566,52.000469 C222.303759,51.9660295 223.226448,53.8325277 224.193911,56.1688791 C224.420413,56.7383609 224.637258,57.2826281 224.851469,57.8195153 C224.932237,58.0624368 225.104309,58.3508677 224.912923,58.680503 C224.811963,58.8447056 224.565269,58.954174 224.365982,58.9787737 C224.166695,59.0089082 223.999892,58.9990684 223.857669,58.9959934 C222.711112,58.9597089 222.000879,58.9068197 222,58.8447056" id="Fill-60" fill="#132529"></path>
                <path d="M222,67.9429142 C222,67.9429142 218.503535,67.9429142 215,66 C215,66 216.372896,69.035831 221.897475,68.9996797 L222,67.9429142" id="Fill-61" fill="#EA8E6C"></path>
                <path d="M207.999939,52.9426128 C208.00469,52.4513781 207.730559,52.0272196 207.372811,52.0042032 C206.545667,51.9509368 205.184989,52.3652312 205.013479,55.4954552 C204.769279,59.9685191 207.923924,58.9354137 207.937226,58.8078373 C207.946728,58.7085382 207.984261,54.6833068 207.999939,52.9426128" id="Fill-62" fill="#F1AD92"></path>
                <path d="M207.996616,56.7526148 C207.976533,56.7405585 207.909357,56.7897884 207.764617,56.8284691 C207.623339,56.8656428 207.3858,56.8842296 207.144797,56.8038541 C206.65656,56.6446103 206.293671,56.0483249 206.334531,55.4314433 C206.355307,55.1194861 206.476501,54.8286274 206.655175,54.5920222 C206.826231,54.3498911 207.070004,54.1871308 207.325549,54.168544 C207.581787,54.1404126 207.749381,54.2589664 207.797858,54.358431 C207.851184,54.4573933 207.813787,54.523703 207.838025,54.5312382 C207.851184,54.5402805 207.946061,54.4794965 207.922515,54.3363277 C207.910049,54.2675063 207.862957,54.1836144 207.758384,54.1122812 C207.651041,54.0394409 207.48691,53.9962391 207.309621,54.0002579 C206.940499,53.9982485 206.585921,54.2232998 206.389241,54.4830129 C206.172477,54.7432285 206.02566,55.0697538 206.002806,55.4198893 C205.961254,56.1096112 206.384393,56.7807462 207.056153,56.9605863 C207.384415,57.0414641 207.670432,56.9841966 207.823482,56.9113563 C207.979303,56.8349996 208.011852,56.7596476 207.996616,56.7526148" id="Fill-63" fill="#EA8E6C"></path>
                <path d="M217.031452,49.8722411 C217.196047,50.0773972 217.770432,49.9814067 218.516209,49.950351 C219.261015,49.8924744 219.843654,49.9202363 219.979117,49.6971997 C220.133516,49.4647522 219.412501,48.9311582 218.452604,49.007386 C217.49028,49.0454998 216.847435,49.6600269 217.031452,49.8722411" id="Fill-64" fill="#132529"></path>
                <path d="M225.012177,49.6569206 C225.120656,49.9234709 225.777359,50.003481 226.506382,49.999885 C227.235404,49.9886476 227.889775,49.8951528 227.989505,49.626355 C228.092151,49.3651987 227.430782,48.9898707 226.491218,49.0002091 C225.551654,49.0087495 224.901949,49.3975623 225.012177,49.6569206" id="Fill-65" fill="#132529"></path>
                <path d="M229.774915,45.7327508 C229.774915,45.7327508 226.411239,47.2612991 222.03378,45.2097077 C219.161091,43.8632099 215.812421,43.2060243 215.074141,43.7482306 C214.336462,44.2904369 214.180402,47.0696669 211.334724,47.8812855 C211.334724,47.8812855 211.530398,53.1844237 209.278944,52.995046 C207.02689,52.8056684 208.434424,44.5925394 208.434424,44.5925394 L213.942112,42.0663766 L219.953391,41 L225.617138,41.7501835 L230,42.8768679 L229.774915,45.7327508" id="Fill-66" fill="#132529"></path>
                <path d="M192,78.3832227 C197.871518,72.3640383 208.208503,73.0210998 208.208503,73.0210998 L216.775949,79.1339796 L221.634847,73.4967383 C221.634847,73.4967383 226.740463,74.0553301 231.525106,76.5463151 L231.854462,76.6483656 L231.850271,76.7163992 C235.608521,78.7502461 240.930314,83.6277787 246,88.3620826 L239.933264,93.9730653 L233.218595,99.9128771 C233.218595,99.9128771 233.244943,99.9558457 233.229972,100.032234 C233.15991,100.392096 234.164146,108.563291 235.191736,114.77285 C229.075896,120.589127 221.280939,123.078322 212.626663,121.56726 C209.880434,121.087444 208.550435,120.420237 206.007208,119.754821 C202.24776,118.772511 199.523088,115.524204 199.185349,111.665385 C198.727843,106.460814 198.379325,100.016121 198.379325,100.016121 L192,78.3832227" id="Fill-67" fill="#0091F4"></path>
                <path d="M227.002722,74 C227.023148,73.9933678 227.149793,74.3438001 227.362812,74.9841189 C227.576999,75.6238261 227.868223,76.555866 228.211972,77.7129654 C228.901222,80.0271643 229.778979,83.2489401 230.60888,86.8449997 C231.437029,90.4422824 232.059747,93.7294967 232.453687,96.1183077 C232.650949,97.3121016 232.79802,98.280836 232.886146,98.9523451 C232.976022,99.6238542 233.015125,99.9963032 232.994698,100 C232.974272,100.003642 232.8949,99.6379204 232.769423,98.9731386 C232.635191,98.256373 232.457189,97.3078206 232.242418,96.1592832 C231.794202,93.7845384 231.139969,90.5107788 230.31357,86.9196118 C229.484837,83.3302796 228.642097,80.1054459 228.005956,77.7777924 C227.697224,76.6524948 227.442184,75.7235128 227.249591,75.0214249 C227.072172,74.3700978 226.982879,74.0068224 227.002722,74" id="Fill-68" fill="#132529"></path>
                <path d="M232.000861,94.9984957 C231.945307,94.9354325 234.585937,92.8696864 237.898143,90.3857915 C241.212201,87.9007603 243.94295,85.9384152 243.99912,86.0014784 C244.055291,86.0651097 241.414661,88.1302877 238.101221,90.6153188 C234.789015,93.0992137 232.057031,95.062127 232.000861,94.9984957" id="Fill-69" fill="#132529"></path>
                <polyline id="Fill-70" fill="#A4A6A3" points="196.510176 105 195 104.028233 196.972248 96 198 100.326593 196.510176 105"></polyline>
                <path d="M198.41603,100 L198.41603,100 L197,95.2762653 L199.876032,86 C200.524781,89.281621 198.41603,100 198.41603,100" id="Fill-71" fill="#253D41"></path>
                <path d="M226,74 C224.037067,73.3608932 222.482944,73.0995775 222,73.027761 C222,73.0187085 222.000537,73.009656 222.001074,73 C222.968037,73.1816536 225.172173,73.6203983 226,74" id="Fill-72" fill="#A4A6A3"></path>
                <path d="M221,74 L221.390295,73 C221.390295,73 221.623066,73.0355191 222,73.0963115 C221.999297,73.1072404 221.998594,73.1174863 221.998594,73.1277322 C221.864276,73.1106557 221.793249,73.1031421 221.793249,73.1031421 L221,74" id="Fill-73" fill="#CD8D73"></path>
                <path d="M219.14388,79 C219.094815,79 219.047076,78.9994068 219,78.9982203 L221.210584,73.7789203 L221.958496,73 C221.958496,73 222.025463,73.0065256 222.152104,73.0213565 C222.748179,73.0919518 224.666361,73.3488234 227.089119,73.9770615 C227.160064,74.0031639 227.223053,74.0286731 227.276097,74.0535891 C230.371842,75.5141388 222.758125,79 219.14388,79" id="Fill-74" fill="#0091F4"></path>
                <path d="M208,72.4392651 L208,68 C208,68 216.564056,70.2312446 216.874871,75.4194833 C216.874871,75.4194833 217.964445,69.6849003 222.376649,69.409696 L223,77.4765479 L217.865237,82 L212.661085,82 L208.538479,78.3997014 L208,72.7980757" id="Fill-75" fill="#0091F4"></path>
                <path d="M218.665415,102 C218.638424,101.998792 218.632255,101.645866 218.645365,101.009274 C218.66233,100.373284 218.676982,99.4524235 218.680838,98.3153505 C218.690863,96.0412046 218.599867,92.8991974 218.234342,89.4422065 C217.864961,85.9846133 217.289683,82.8733215 216.800002,80.6316978 C216.554005,79.5524421 216.350422,78.6592857 216.196192,77.9793306 C216.048131,77.3535791 215.978727,77.0048687 216.005718,77 C216.033479,76.9952325 216.153778,77.3349089 216.348879,77.9540355 C216.547065,78.5725598 216.799231,79.4735456 217.079159,80.5919484 C217.642869,82.828754 218.262874,85.9460685 218.63534,89.4163091 C219.001636,92.8853453 219.047905,96.0400001 218.964621,98.3183618 C218.925292,99.4578438 218.865914,100.379307 218.801137,101.014694 C218.740216,101.650684 218.693176,102.001201 218.665415,102" id="Fill-76" fill="#132529"></path>
                <path d="M215.999291,74.4688743 C215.99577,74.4959974 215.800393,74.3899707 215.479457,74.5200384 C215.144439,74.6334624 214.845212,75.071131 214.599963,75.6968122 C214.06194,76.921668 213.396013,78.687137 212.933091,80.7897958 L212.88674,81 L212.70955,80.8878089 C212.186196,80.5555506 211.649347,80.1961691 211.108978,79.8108975 C210.061682,79.0625457 209.104155,78.2987831 208.267491,77.5430342 C207.846813,77.1633104 207.500061,76.7022172 207.300577,76.2127681 C207.104025,75.7227025 207.027165,75.2320205 207.005456,74.7906532 C206.97084,73.9042201 207.108719,73.2051832 207.199661,72.7292956 C207.29823,72.253408 207.372743,71.9957383 207.392105,72 C207.413814,72.0043684 207.378024,72.2712846 207.317005,72.7508708 C207.26244,73.2286077 207.159764,73.9270282 207.220783,74.7758588 C207.255399,75.1981166 207.34106,75.656744 207.531744,76.1036591 C207.726535,76.5505743 208.042191,76.9586541 208.453482,77.3211177 C209.282517,78.0485106 210.244152,78.804876 211.2803,79.5452141 C211.815975,79.9274036 212.347544,80.2861686 212.865031,80.6196598 L212.642078,80.7176729 C213.125535,78.5915896 213.835466,76.8187234 214.42512,75.6080456 C214.57004,75.3059926 214.71144,75.0261313 214.886282,74.8146942 C215.057605,74.6001749 215.266477,74.4688743 215.445427,74.4158609 C215.817407,74.306752 216.013372,74.4645593 215.999291,74.4688743" id="Fill-77" fill="#132529"></path>
                <path d="M222.250472,70 C222.27284,69.9994337 222.30142,70.241081 222.338079,70.677294 C222.377843,71.1747697 222.426928,71.7919346 222.485954,72.5231161 C222.555542,73.3013791 222.658682,74.2248573 222.833275,75.2424986 C222.900999,75.7450796 223.094231,76.2907713 222.944492,76.9073688 C222.752502,77.513756 222.252957,77.9658519 221.723588,78.3311591 C220.980483,78.8348745 220.203827,79.212661 219.681914,79.7464405 L219.435248,80 L219.411016,79.6619207 C219.28178,77.8705544 218.626282,76.3962792 218.040373,75.4381989 C217.450735,74.4716098 216.963616,73.9747014 217.002139,73.9469063 C217.014565,73.9366958 217.147529,74.0507125 217.36872,74.2815821 C217.587427,74.5135861 217.887527,74.8686828 218.209373,75.3480066 C218.853687,76.2981455 219.568211,77.7973795 219.721057,79.6426343 L219.449538,79.5581145 C220.016808,78.9698793 220.81956,78.5796133 221.529113,78.0951843 C222.034251,77.7514325 222.480362,77.32543 222.637557,76.8353285 C222.7699,76.3389873 222.60587,75.796699 222.538145,75.2827732 C222.378465,74.2537869 222.298314,73.3200982 222.257928,72.53673 C222.21692,71.7533618 222.210086,71.1191795 222.21195,70.6812648 C222.214435,70.24335 222.228725,70.0011355 222.250472,70" id="Fill-78" fill="#132529"></path>
                <path d="M251.208606,71 C250.854303,71.448726 238,89.8992092 238,89.8992092 L239.808934,91 L253,72.784235 L251.208606,71" id="Fill-79" fill="#132529"></path>
                <path d="M198.971993,84.6566544 C198.971993,84.6566544 212.684426,104.739586 213.511476,105.134067 C215.138897,105.910965 233.89841,89.4175669 235.687684,87.8396438 C235.933724,87.5042748 236.442998,86.7973459 237.441979,85.3907264 C237.441979,85.3907264 238.922369,78.4999797 240.501768,79.02897 C242.081167,79.5585634 239.636182,82.5304392 240.664807,85.1488506 C241.693432,87.7666588 246.404357,81.5225227 246.592889,80.9615638 L247.808268,79.3468467 C247.808268,79.3468467 249.08234,83.021429 248.995781,84.5559231 C248.718912,89.4724564 244.147311,95.3190958 244.147311,95.3190958 C244.147311,95.3190958 223.616902,121.193777 209.553492,121.996612 C205.503022,122.228234 198.305017,110.534955 193.492712,101.767107 C190.587068,96.472379 192.037222,89.8017936 196.853085,86.2285457 L198.971993,84.6566544" id="Fill-80" fill="#F1AD92"></path>
                <path d="M246.003773,85.99925 C245.951667,85.9680503 246.447339,85.0991068 246.99378,83.9971617 C247.542894,82.8965443 247.938363,81.978478 247.994476,82.0003841 C248.045914,82.0183073 247.735284,82.9781944 247.180158,84.089433 C246.628373,85.2013355 246.049866,86.0284581 246.003773,85.99925" id="Fill-81" fill="#EA8E6C"></path>
                <path d="M195.808217,75 C195.808217,75 181.115566,80.4100131 192.039475,106 L209,95.3975758 L206.587721,89.4138292 L195.808217,75" id="Fill-82" fill="#0091F4"></path>
                <path d="M194.61946,76.0221602 C194.61946,76.0221602 195.254621,75.9145233 196.372455,76.1736936 C196.923748,76.3192137 197.586473,76.5687628 198.281454,76.9999113 C198.977608,77.427452 199.700741,78.028775 200.40276,78.7840366 C201.816182,80.2939586 203.134593,82.4015957 204.357408,84.8423657 C205.589607,87.2831357 206.738525,90.0630519 207.917941,92.9842789 C208.270416,93.8592039 208.6182,94.7221024 208.947803,95.538699 L209,95.6679834 L208.880358,95.7347303 C204.017835,98.4533115 199.783435,100.99811 196.79003,102.903102 C195.292742,103.853793 194.099837,104.634912 193.281695,105.177906 C192.889925,105.435874 192.576744,105.642128 192.338045,105.799073 C192.121633,105.93858 192.00551,106.007732 192.000232,105.999314 C191.994367,105.990895 192.099934,105.906109 192.305789,105.750366 C192.512817,105.596427 192.817788,105.367323 193.219528,105.0841 C194.020076,104.511039 195.197145,103.70226 196.681531,102.726914 C199.649717,100.772614 203.871801,98.1911347 208.73491,95.4623309 L208.668051,95.6583622 C208.337275,94.8411643 207.988905,93.9788671 207.635256,93.1039422 C206.457014,90.1839178 205.318652,87.4082109 204.107567,84.9740554 C202.904692,82.5392987 201.616778,80.4418841 200.246169,78.9361713 C199.564091,78.1827136 198.865004,77.5813907 198.192309,77.1490394 C197.519614,76.7130803 196.878589,76.4527074 196.341958,76.2915529 C195.255207,76.0011139 194.616528,76.0660567 194.61946,76.0221602" id="Fill-83" fill="#132529"></path>
                <path d="M226.867767,38 C226.879312,37.9982878 226.906251,38.0840359 226.946659,38.2526351 C226.976163,38.4212344 227.016571,38.6755818 226.99284,39.0029309 C226.957563,39.6460416 226.698439,40.6425734 225.778677,41.5116419 C224.88906,42.3824485 223.197699,42.9322791 221.492868,42.4890542 C220.65777,42.2688902 219.814976,41.8100221 219.298652,41.0521944 C219.048508,40.6773362 218.897779,40.2109361 218.970899,39.7439566 C219.040169,39.2868266 219.294804,38.8233234 219.757892,38.5486978 C220.22098,38.2648021 220.828382,38.2734928 221.297884,38.4588941 C221.773158,38.6413984 222.165693,38.9913433 222.349773,39.4148694 C222.725631,40.2648183 222.448548,41.1842928 221.929017,41.8227684 C220.823892,43.1437525 218.828509,43.2503582 217.722742,42.6483834 C217.139071,42.406203 216.62403,42.1779277 216.139135,42.0997115 C215.656164,42.0099078 215.22707,42.0863858 214.912786,42.2161667 C214.284217,42.4896336 214.029583,42.7920694 214.00072,42.7590448 C213.992382,42.7515129 214.056522,42.6837256 214.188649,42.5597385 C214.25343,42.4965861 214.334246,42.41837 214.450339,42.346527 C214.5613,42.2683108 214.68958,42.1785071 214.858267,42.109561 C215.179606,41.9554462 215.648467,41.8528961 216.169922,41.9334298 C216.693301,42.0017965 217.236564,42.2271749 217.817668,42.4531327 C218.110145,42.5603178 218.41545,42.6761936 218.742562,42.7294965 C219.06326,42.7793231 219.422441,42.7735293 219.775851,42.7121151 C220.482669,42.5973981 221.207447,42.2474532 221.680797,41.6582248 C222.145168,41.0823221 222.374788,40.2439607 222.047676,39.5284276 C221.760972,38.8291172 220.683426,38.3557646 219.94069,38.8007277 C219.578942,39.0133597 219.358302,39.397488 219.299293,39.7839338 C219.239002,40.1732764 219.360226,40.5660954 219.580225,40.9009764 C220.031126,41.5742148 220.806574,42.0128047 221.579457,42.2225399 C223.164346,42.6489628 224.755009,42.1617051 225.610631,41.3615827 C226.50153,40.5603016 226.7908,39.6147551 226.863278,38.9936608 C226.938962,38.3586615 226.831208,38.0040816 226.867767,38" id="Fill-84" fill="#334F55"></path>
                <path d="M223.999831,61.8345307 C224.006562,61.8814174 223.811376,61.9796561 223.474848,61.9975177 C223.14138,62.0168678 222.667182,61.9253271 222.20461,61.6440071 C221.742649,61.358966 221.401227,60.9496379 221.215219,60.6117562 C221.026152,60.2731303 220.975366,60.0245565 221.010243,60.0029738 C221.09101,59.9434352 221.498514,60.7918606 222.348399,61.2971946 C223.187882,61.8270884 223.990653,61.7214073 223.999831,61.8345307" id="Fill-85" fill="#132529"></path>
                <path d="M207.914262,58.9213807 C207.940622,58.8974974 208.105227,59.1602135 207.893174,59.5336611 C207.789491,59.7084433 207.593255,59.8973383 207.296264,59.9727878 C206.996931,60.0498657 206.641362,59.9592177 206.386548,59.7513246 C206.128805,59.5456028 205.985875,59.2400053 206.001105,58.9631764 C206.009892,58.6879759 206.135248,58.4648843 206.268806,58.3134426 C206.549395,58.0073024 206.835256,57.9790767 206.840528,58.0094736 C206.862201,58.0501837 206.633747,58.1462597 206.443369,58.4306878 C206.246547,58.6993747 206.169809,59.2172077 206.586885,59.5385463 C206.778435,59.6927021 207.026806,59.7600095 207.231243,59.7187565 C207.439781,59.6802176 207.608485,59.5537448 207.710997,59.4267292 C207.923635,59.1629275 207.866228,58.9273515 207.914262,58.9213807" id="Fill-86" fill="#132529"></path>
                <path d="M227.736759,41.00038 C227.761441,40.9858743 227.959967,41.3871993 227.994843,42.1106722 C228.034548,42.819035 227.852119,43.8725131 227.198593,44.7271419 C226.540238,45.5769355 225.639896,45.9293036 225.011588,45.9855133 C224.371476,46.0489758 223.990521,45.8851821 224.000179,45.8549618 C224.006081,45.8011698 224.389719,45.8809512 224.985834,45.7649054 C225.572827,45.6573213 226.387856,45.2958871 226.98719,44.5204353 C227.582767,43.742566 227.785586,42.7827707 227.796853,42.1124854 C227.81456,41.4319253 227.690079,41.0154901 227.736759,41.00038" id="Fill-87" fill="#334F55"></path>
                <path d="M207.99972,91.0023213 C208.038527,91.0813785 204.040134,93.15954 199.070339,95.6427928 C194.098724,98.1272714 190.038481,100.076735 190.00028,99.997678 C189.961473,99.9186209 193.959259,97.8410722 198.930268,95.3565936 C203.900063,92.8733408 207.961519,90.9232641 207.99972,91.0023213" id="Fill-88" fill="#D4D5CF"></path>
                <path d="M203.999636,83.0024029 C204.041351,83.0828359 200.492538,85.1614267 196.074961,87.645349 C191.655571,90.1299046 188.041464,92.0780293 188.000354,91.9975963 C187.959243,91.9177967 191.506847,89.8392059 195.926238,87.3546503 C200.343814,84.870728 203.958525,82.9219699 203.999636,83.0024029" id="Fill-89" fill="#D4D5CF"></path>
                <path d="M200.999522,78.0029815 C201.021332,78.0433694 200.295818,78.4399058 199.115494,79.0665311 C197.854344,79.7372161 196.26668,80.5829156 194.510948,81.5173462 C192.762914,82.4676872 191.18359,83.3274612 189.928854,84.009773 C188.75687,84.6486372 188.025582,85.0353825 188.000564,84.9974423 C187.977471,84.960726 188.664496,84.5060554 189.807614,83.8164004 C190.949449,83.1267453 192.549301,82.2070012 194.346729,81.2395259 C196.142874,80.2732745 197.79661,79.4428735 199.005159,78.8670391 C200.214991,78.2912047 200.979636,77.9650413 200.999522,78.0029815" id="Fill-90" fill="#D4D5CF"></path>
                <path d="M213.999718,76.9926947 C213.991618,77.020992 213.54672,76.9730306 212.881975,76.7432955 C212.217809,76.5183565 211.357518,76.0852651 210.542352,75.4809515 C209.727187,74.8766378 209.094841,74.2478639 208.655728,73.7869549 C208.218929,73.3236478 207.971892,73.0229298 208.002554,73.0013472 C208.035531,72.9788053 208.341001,73.2406745 208.818298,73.6728067 C209.296752,74.1025409 209.946454,74.7044564 210.743106,75.293902 C211.538023,75.8838272 212.34856,76.3236332 212.971649,76.5831044 C213.593581,76.8468921 214.012446,76.9543256 213.999718,76.9926947" id="Fill-91" fill="#D4D5CF"></path>
                <path d="M221.991057,74.0018626 C222.061027,74.0261842 221.724506,75.0956737 220.837112,75.9719058 C219.956938,76.8586552 219.009015,77.0683462 219.000685,76.9822349 C218.972364,76.8842914 219.826994,76.5431328 220.651082,75.7102851 C221.48461,74.8912415 221.913868,73.9525623 221.991057,74.0018626" id="Fill-92" fill="#D4D5CF"></path>
                <path d="M237,83.0115623 C237.000574,83.027416 236.889913,83.0582425 236.67839,83.1031612 C236.433437,83.1489607 236.126815,83.2070907 235.751605,83.2775514 C234.94528,83.414069 233.777002,83.585817 232.331495,83.7575649 C229.439904,84.1098684 225.440553,84.4551258 221.019308,84.7008575 C216.59691,84.9369008 212.590643,85.0284997 209.690983,84.9923886 C208.240866,84.9791772 207.0674,84.9342585 206.257616,84.8866976 C205.879525,84.8567518 205.571173,84.8329713 205.325068,84.8135946 C205.111239,84.7915756 204.999426,84.7730797 205,84.757226 C205.000579,84.7413724 205.112392,84.7290418 205.325645,84.7211149 C205.572326,84.7175919 205.881254,84.7131881 206.259345,84.7079035 C207.111203,84.6982152 208.273142,84.6850038 209.690407,84.6682694 C212.587184,84.6215892 216.588841,84.4789063 221.008357,84.242863 C225.426144,83.9962505 229.424919,83.7029579 232.317086,83.4343265 C233.731469,83.2960474 234.890526,83.1833103 235.740655,83.0996382 C236.118169,83.0644078 236.425945,83.0353428 236.672626,83.0115623 C236.885879,82.9965894 236.998845,82.9957087 237,83.0115623" id="Fill-93" fill="#D4D5CF"></path>
                <path d="M234,89.0173543 C234.002452,89.054023 233.641367,89.1456948 232.987593,89.2811652 C232.333203,89.4156171 231.384892,89.5847005 230.211057,89.7588769 C227.863387,90.1163966 224.614852,90.4861393 221.021253,90.7275416 C217.426421,90.9658881 214.168643,91.0310769 211.81173,90.9872782 C210.633582,90.970981 209.679725,90.9282008 209.021638,90.8813464 C208.362935,90.8334734 207.999385,90.7896747 208,90.753006 C208,90.7163373 208.364783,90.6908729 209.023486,90.6745757 C209.736414,90.6582785 210.676715,90.637907 211.811114,90.6124426 C214.166178,90.5594767 217.417794,90.4352106 221.007696,90.1978826 C224.596982,89.9564804 227.844285,89.6468336 230.193188,89.3850599 C231.325738,89.2587566 232.26419,89.1548619 232.975886,89.0754131 C233.63274,89.0030943 233.997523,88.9806856 234,89.0173543" id="Fill-94" fill="#D4D5CF"></path>
                <path d="M222,99.0251132 C222.003675,99.0788289 221.226171,99.2215591 219.963111,99.3834735 C218.700052,99.5461553 216.950207,99.7211149 215.015359,99.8415915 C213.079897,99.9613007 211.325135,100.004273 210.055315,99.9996691 C208.78488,99.9950649 208,99.9490228 208,99.8953072 C207.999386,99.838522 208.783651,99.784039 210.051013,99.7165107 C211.409339,99.6413088 213.113702,99.5469226 215,99.4425607 C216.883827,99.3128758 218.587575,99.1954686 219.945287,99.1018499 C221.210805,99.012068 221.995685,98.9690954 222,99.0251132" id="Fill-95" fill="#D4D5CF"></path>
                <path d="M209,77.3134198 C208.998244,77.4614198 207.206459,77.4954198 205.002353,77.6534198 C202.79591,77.8054198 201.009965,78.0234198 201,77.8764198 C200.990692,77.7384198 202.771965,77.2854198 204.989504,77.1334198 C207.205875,76.9744198 209.002917,77.1744198 209,77.3134198" id="Fill-96" fill="#D4D5CF"></path>
                <path d="M234,78.014488 C233.999381,78.0754227 231.536574,78.1188866 228.499381,78.1107904 C225.461569,78.1031203 223,78.0468729 223,77.985512 C223.000619,77.9245773 225.462807,77.8811134 228.500619,77.8892096 C231.537812,77.8968797 234,77.952701 234,78.014488" id="Fill-97" fill="#D4D5CF"></path>
                <path d="M234.999672,114.003236 C235.008998,114.019196 234.818988,114.110967 234.468695,114.264085 C234.118984,114.4187 233.601413,114.622192 232.952117,114.855111 C231.655856,115.321448 229.812881,115.872573 227.716948,116.287538 C225.61985,116.699511 223.680705,116.894524 222.276034,116.96036 C221.573698,116.994774 221.00367,117.005747 220.610245,116.997268 C220.217404,116.991283 220.000583,116.979313 220,116.961358 C219.999417,116.919961 220.8667,116.891033 222.259714,116.777815 C223.652145,116.665097 225.569142,116.44315 227.648755,116.03417 C229.726619,115.623195 231.563765,115.104489 232.873432,114.684038 C234.184264,114.264584 234.979272,113.96533 234.999672,114.003236" id="Fill-98" fill="#D4D5CF"></path>
                <path d="M48,170.500593 C48,184.030887 59.4163895,195 73.4994109,195 C87.5830215,195 99,184.030887 99,170.500593 C99,156.969113 87.5830215,146 73.4994109,146 C59.4163895,146 48,156.969113 48,170.500593" id="Fill-99" fill="#D4D5CF"></path>
                <path d="M68.5152677,111 C64.499729,111.216196 62.9242629,115.539513 62.4437311,116.504544 C61.9637839,117.469576 61.8889566,118.587394 61.8006837,119.668374 C61.7124108,120.749958 61.5884781,121.872608 61.030196,122.791743 C60.1462981,124.248952 58.2902295,125.001411 57.7839758,126.639791 C57.2116637,128.491951 58.6801501,130.473345 58.2890603,132.375025 C58.0791931,133.395615 57.3578108,134.23564 57.1023456,135.24536 C56.8363578,136.299768 57.1140374,137.439327 57.6442592,138.380806 C58.9630909,140.720313 61.696627,141.895502 64.3155836,141.992125 C66.9345403,142.088749 69.4962073,141.279524 72,140.478753" id="Fill-100" fill="#132529"></path>
                <path d="M86.6257295,117 C86.2325161,117.851631 86.6040793,118.886717 87.2202306,119.592991 C87.8375521,120.29985 88.6661088,120.779882 89.395777,121.368345 C90.1254453,121.957395 90.7960144,122.734003 90.8808596,123.668863 C90.9586831,124.526941 90.5280208,125.378572 90.6450486,126.232547 C90.9452249,128.426977 94.4385041,129.085189 94.6245783,131.291927 C94.7486277,132.761327 93.2424802,134.111746 93.6596842,135.525465 C93.8200123,136.067625 94.2389718,136.487286 94.5297858,136.971421 C95.5210111,138.620174 94.8486865,140.894902 93.4127556,142.173227 C91.9762396,143.452139 89.9791605,143.902278 88.0599049,143.989024 C86.4455067,144.061703 84.6116814,143.796777 83.6608306,142.487973 C82.7913142,141.290532 82.9697816,139.657018 83.1435679,138.186445 C83.9545704,131.317716 83.8170627,124.376894 83.6777997,117.461862" id="Fill-101" fill="#132529"></path>
                <path d="M69.8449048,148.462865 C69.8761875,144.801745 69.8419536,140.946778 69.8419536,140.946778 C69.8419536,140.946778 65.1702174,140.109543 64.2706942,133.945638 C63.4130779,128.066559 64.8674251,115.422408 64.8674251,115.422408 C71.6362781,112.73291 79.2580254,113.773507 84,119.261915 L83.2627923,148.990893 C83.1772078,152.442109 80.163451,155.117337 76.4957101,154.996033 C72.7919647,154.874134 69.8159831,151.950353 69.8449048,148.462865" id="Fill-102" fill="#F1AD92"></path>
                <path d="M66.0005183,124.93196 C65.9880595,125.482939 66.2017456,125.959929 66.4777253,125.99771 C66.7533275,126.034704 66.987023,125.619109 66.9994817,125.068131 C67.0119405,124.516365 66.7982544,124.040162 66.5226522,124.002381 C66.2466725,123.964599 66.012977,124.380982 66.0005183,124.93196" id="Fill-103" fill="#132529"></path>
                <path d="M65.0116199,124.930722 C65.1039101,125.050808 65.6815786,124.550678 66.4950998,124.564324 C68.0258642,124.830423 67.9979493,125.110169 67.9894039,124.955967 C68.0338399,124.90343 67.9398406,124.689186 67.6823395,124.459249 C67.4282565,124.229994 66.9941506,124.004151 66.4876938,124.000057 C65.9806673,123.995963 65.5522583,124.213619 65.3050117,124.43878 C65.0526378,124.665305 64.9660445,124.877502 65.0116199,124.930722" id="Fill-104" fill="#132529"></path>
                <path d="M74.0010365,125.465958 C73.9761191,125.741828 74.4034912,125.979918 74.9554506,125.998808 C75.5058999,126.017697 75.974046,125.80991 75.9989635,125.534433 C76.0238809,125.258564 75.5965088,125.019687 75.0453045,125.00119 C74.493345,124.982301 74.0251989,125.190482 74.0010365,125.465958" id="Fill-105" fill="#132529"></path>
                <path d="M73.0115389,124.956387 C73.1038248,125.078993 73.6826055,124.565448 74.495519,124.580161 C75.3078628,124.57946 75.9003155,125.103514 75.989753,124.981609 C76.0330477,124.928362 75.9407618,124.708372 75.6821334,124.471567 C75.428632,124.236163 74.9939768,124.004963 74.4875436,124.000058 C73.9811105,123.995855 73.5527216,124.219348 73.3049169,124.450549 C73.0536942,124.68315 72.9659656,124.901039 73.0115389,124.956387" id="Fill-106" fill="#132529"></path>
                <path d="M70.4545611,130.969684 C70.4599759,130.922207 69.8602856,130.826081 68.8876501,130.708267 C68.6412762,130.683649 68.4084393,130.639103 68.368505,130.492569 C68.3123264,130.337828 68.4192689,130.108649 68.541779,129.860713 C68.7807076,129.346084 69.0311426,128.806252 69.2937609,128.240629 C70.3381427,125.933593 71.0968931,124.03568 70.9899506,124.000512 C70.8823312,123.964758 69.9482763,125.805815 68.9032177,128.112851 C68.6521058,128.681404 68.4111467,129.223581 68.1823709,129.742899 C68.0855811,129.984974 67.9217831,130.2587 68.0429395,130.580489 C68.1072404,130.740505 68.2872829,130.858318 68.4443124,130.897003 C68.6020188,130.940378 68.7407733,130.943894 68.8632834,130.951514 C69.8420106,131.007197 70.4498232,131.017162 70.4545611,130.969684" id="Fill-107" fill="#132529"></path>
                <path d="M69,140.740207 C69,140.740207 73.5038849,141.001042 78,139 C78,139 75.7700719,142.479431 69.0718705,141.943982 L69,140.740207" id="Fill-108" fill="#EA8E6C"></path>
                <path d="M70.0997551,133.600476 C70.4553402,133.173847 71.0723246,132.944368 71.6818015,133.011563 C72.1042721,133.058474 72.5287901,133.252454 72.7819995,133.575119 C73.0345263,133.897785 73.0829841,134.352941 72.8461549,134.655321 C72.578613,134.995737 72.0278315,135.068638 71.5644107,134.941219 C71.1003073,134.813801 70.703772,134.524733 70.3270292,134.237567 C70.2232885,134.157693 70.1168177,134.074649 70.0519797,133.966883 C69.9878243,133.858482 69.9755392,133.718386 70.0581223,133.629637" id="Fill-109" fill="#EA8E6C"></path>
                <path d="M72.8610153,132.00006 C72.7165915,131.992191 72.7035187,132.754562 71.8699696,133.288222 C71.037043,133.823357 70.0098914,133.728429 70.0005537,133.834669 C69.9868584,133.882871 70.2277721,133.985176 70.6616658,133.998456 C71.0874668,134.014195 71.7106055,133.91189 72.2210687,133.5853 C72.7296644,133.257727 72.9531476,132.817027 72.9904986,132.504209 C73.0322072,132.186472 72.927002,131.996126 72.8610153,132.00006" id="Fill-110" fill="#132529"></path>
                <path d="M80.9689391,115.33328 C78.6631221,118.463286 72.5581275,121.681976 68.1864544,122.428541 C68.696828,121.789208 71.3820755,120.213771 71.8924492,119.573859 C69.9106403,120.982362 67.0749604,122.866741 64.4463534,122.993681 C64.1357441,123.008751 63.7983372,123.008171 63.5425414,122.859786 C63.1941718,122.658074 63.1229143,122.265085 63.0827178,121.917306 C62.9127963,120.45142 63.019987,117.937561 63.2648201,116.482108 C63.5096533,115.027235 64.2124829,113.579897 65.5389672,112.604378 C67.2235656,111.366287 69.6341371,111.060242 71.905239,111.008655 C73.8103091,110.964603 75.7738469,111.071835 77.5150859,111.726238 C79.2563249,112.380641 80.7454222,113.673218 81,115.227787" id="Fill-111" fill="#132529"></path>
                <path d="M87.3317447,129.620041 C87.6586188,128.071447 87.9196162,126.601497 87.9798464,125.620181 C88.17183,122.532245 87.204383,111.135219 75.65274,112.052347 L75.1865837,115.295258 C75.1865837,115.295258 73.4016377,126.394478 80.8733147,126.476013 C80.8733147,126.476013 81.2861423,129.783111 84.6696971,133 C84.6696971,133 86.6296869,132.945065 87.3317447,129.620041" id="Fill-112" fill="#132529"></path>
                <path d="M82.2335856,126.069101 C82.7405258,125.949816 83.27535,125.975928 83.7553204,126.218652 C84.2352909,126.461376 84.6553793,126.933768 84.8578811,127.548589 C85.0612971,128.165191 85.0343273,128.883274 84.8533099,129.511746 C84.6727496,130.139623 84.3491124,130.684417 83.9770211,131.149687 C83.7100661,131.484397 83.406999,131.78884 83.0518209,131.927709 C82.6966428,132.065985 82.2806684,132.014354 82,131.699228" id="Fill-113" fill="#F1AD92"></path>
                <path d="M81.0187252,129.734093 C80.9009986,129.754793 81.3403877,130.104103 82.2803466,129.969037 C82.7336404,129.905385 83.1785914,129.686484 83.4511238,129.411693 C83.7255102,129.131728 83.9062716,128.824852 83.981357,128.464675 C84.0536616,128.107602 83.9155414,127.726725 83.5688504,127.453487 C83.2379181,127.175591 82.6919262,127.008958 82.2302896,127.000678 C81.2653022,126.982048 80.9593984,127.35361 81.0687822,127.364995 C81.1447947,127.408982 81.523003,127.219061 82.1533502,127.308071 C82.7568149,127.373793 83.34174,127.843162 83.1989849,128.421205 C83.0719885,129.009081 82.655774,129.545725 82.0912424,129.676651 C81.5026094,129.839662 81.0845409,129.687001 81.0187252,129.734093" id="Fill-114" fill="#EA8E6C"></path>
                <path d="M82.0305388,113.597929 C82.9474125,114.052671 84.0705664,114.181222 85.0915563,113.947905 C86.1118955,113.714588 87.0183575,113.121668 87.5591112,112.333373 C87.9085513,111.824266 88.1089751,111.206428 87.937834,110.632763 C87.7035725,109.847865 86.8270439,109.318371 85.9251369,109.114502 C84.6178274,108.818325 83.1361232,109.102043 82.1476696,109.90393 C81.1592161,110.705816 80.7336409,112.017942 81.1722306,113.130162 C81.6108202,114.242383 82.9304936,115.063524 84.2801004,114.996133" id="Fill-115" fill="#132529"></path>
                <path d="M83.6142793,131 C83.003675,131.474056 82.3853189,131.95581 81.907688,132.58318 C81.4306534,133.209909 81.1020958,134.01048 81.1712658,134.816825 C81.2100249,135.268429 81.3704277,135.714901 81.3096058,136.163298 C81.2261248,136.780404 80.7550531,137.237782 80.4443843,137.763798 C79.6411773,139.125667 79.9864311,141.036003 81.0019185,142.221464 C82.0174059,143.408208 83.5606129,143.943205 85.0585016,143.995806 C85.9273008,144.026598 86.8396295,143.895093 87.5522,143.358814 C88.5784207,142.585826 88.9737631,141.136716 89,139.788319" id="Fill-116" fill="#132529"></path>
                <path d="M83.9971609,116.001526 C84.0265178,116.021757 83.8280872,116.497173 83.4073055,117.195125 C82.9886984,117.892445 82.3292564,118.79776 81.4795384,119.648073 C80.6281894,120.497122 79.7594438,121.119842 79.1038073,121.496635 C78.4470835,121.874692 78.0137979,122.031479 78.0007505,121.994811 C77.9594334,121.899348 79.6311435,121.078749 81.2952425,119.398985 C82.9729327,117.738188 83.9221379,115.940202 83.9971609,116.001526" id="Fill-117" fill="#334F55"></path>
                <path d="M85.987563,116.000283 C86.0203027,116.004648 85.9990506,116.615229 85.7928483,117.574445 C85.5889435,118.53179 85.1633281,119.82904 84.4493741,121.122547 C83.7313995,122.414183 82.874425,123.429531 82.1909131,124.074413 C81.5074012,124.721167 81.0203272,125.027393 81.0019471,124.99808 C80.9312984,124.917625 82.7980325,123.508738 84.1926264,120.955401 C85.6170881,118.421399 85.8887697,115.969723 85.987563,116.000283" id="Fill-118" fill="#334F55"></path>
                <path d="M62.0357287,121 C62.1037216,120.994664 62.1917124,121.92292 62.457018,123.018928 C62.7169909,124.117615 63.0529558,124.959584 62.992962,124.998708 C62.9423007,125.03676 62.5036798,124.230163 62.234819,123.09664 C61.9610699,121.96526 61.9761794,121.000559 62.0357287,121" id="Fill-119" fill="#334F55"></path>
                <path d="M88.5377091,142.588884 C88.5543592,142.551142 88.8238445,142.863692 89.4762827,142.877255 C89.7926351,142.880204 90.1922381,142.792336 90.5628575,142.549373 C90.9328602,142.311128 91.2362625,141.881814 91.3854969,141.358146 C91.5347314,140.83094 91.5378147,140.216456 91.3972137,139.580742 C91.2646294,138.94031 91.0050108,138.278648 90.7762257,137.556836 C90.5536074,136.838561 90.3587393,136.03006 90.501807,135.180279 C90.6442581,134.315755 91.2294791,133.615173 91.5156146,132.839106 C91.8066834,132.064809 91.6895159,131.206772 91.3330799,130.512676 C90.9686272,129.809144 90.3544226,129.29786 89.642784,129.034847 C89.2894313,128.890956 88.9237453,128.768885 88.5845761,128.59256 C88.2472569,128.419183 87.9321379,128.177989 87.7403531,127.868978 C87.3450669,127.247417 87.3611003,126.572782 87.3592503,126.01432 C87.3703504,125.442885 87.4024173,124.942216 87.2957332,124.514082 C87.1995324,124.086538 87.0324145,123.735657 86.832613,123.498591 C86.4182099,123.012665 85.9797567,123.046869 86.0007235,123.007358 C86.0007235,123.00146 86.0956909,122.987307 86.2702088,123.026818 C86.4434935,123.062791 86.697562,123.176016 86.9281971,123.421338 C87.1588321,123.664891 87.3530836,124.029925 87.4708678,124.475751 C87.6003688,124.924525 87.5824853,125.457628 87.5861853,126.013731 C87.5985187,126.566295 87.6120855,127.205547 87.9648215,127.732164 C88.3101574,128.273523 89.0285794,128.498205 89.7574848,128.774192 C90.5098238,129.039565 91.2220791,129.615128 91.614282,130.37822 C92.0083349,131.133057 92.1415359,132.077193 91.8190168,132.940537 C91.4977311,133.78678 90.9347103,134.460236 90.8126093,135.230995 C90.6769417,135.999985 90.8483763,136.771334 91.0598945,137.477224 C91.2763461,138.187242 91.531648,138.863647 91.6586823,139.531795 C91.7937333,140.198174 91.7795499,140.855118 91.6037986,141.417708 C91.4280473,141.979707 91.0839447,142.440865 90.6627582,142.692084 C90.2452718,142.944483 89.8123686,143.018197 89.471966,142.996378 C89.1278635,142.977507 88.8793449,142.860743 88.7338105,142.765799 C88.5864261,142.668496 88.5377091,142.588884 88.5377091,142.588884" id="Fill-120" fill="#334F55"></path>
                <path d="M84.0028699,141.429559 C84.0293306,141.41128 84.0766222,141.624533 84.3496746,141.759187 C84.5951403,141.887748 85.1429341,141.895669 85.4424472,141.438698 C85.7470274,140.978072 85.6997358,140.20305 85.3512421,139.531608 C85.0303351,138.842496 84.3918992,138.168617 84.2291937,137.162672 C84.1430555,136.676455 84.2505875,136.122607 84.5422188,135.757031 C84.8175231,135.389017 85.1418081,135.144081 85.3523681,134.843089 C85.7768661,134.236232 85.8128977,133.475224 85.7442124,132.898223 C85.6721491,132.306598 85.5156365,131.839269 85.4216164,131.515125 C85.3230924,131.19159 85.2724228,131.008801 85.2915647,131.000271 C85.3095805,130.99235 85.3957187,131.158078 85.5280224,131.470646 C85.6552592,131.783824 85.8455514,132.24445 85.9497054,132.864711 C86.0459775,133.470959 86.0454145,134.299599 85.5679951,135.019785 C85.3281593,135.36891 85.0010594,135.626032 84.7685426,135.948349 C84.5281439,136.262135 84.4487616,136.680111 84.518573,137.110882 C84.6508767,137.986438 85.2493401,138.651178 85.5905148,139.396954 C85.9553354,140.131153 86.0031899,141.024988 85.6096567,141.570915 C85.4193645,141.85119 85.1305482,141.966956 84.8952164,141.993765 C84.6542547,142.019356 84.4442577,141.96391 84.2978791,141.86886 C83.9961139,141.669621 83.992173,141.41981 84.0028699,141.429559" id="Fill-121" fill="#334F55"></path>
                <path d="M60.7030229,139.999291 C60.6881671,140.012333 60.5190396,139.845157 60.2373509,139.517325 C59.9648042,139.185936 59.5482706,138.700413 59.2408699,137.95879 C59.0888837,137.588867 58.9894642,137.146027 59.0008917,136.664654 C59.0117479,136.189209 59.1477355,135.653296 59.504846,135.228833 C59.8585281,134.802593 60.3727671,134.582655 60.6824533,134.183684 C61.0018529,133.788863 61.0424206,133.208488 60.9184319,132.657754 C60.7950145,132.096349 60.5464656,131.593634 60.292203,131.091512 C60.0459397,130.587611 59.8191031,130.074818 59.7362535,129.535941 C59.6448332,129.00062 59.7591086,128.43803 60.0305125,128.039059 C60.2939171,127.634753 60.6247442,127.358497 60.9012906,127.097654 C61.4778096,126.60561 61.8040657,126.07029 61.8766306,125.653534 C61.9566233,125.236186 61.8189215,125.008541 61.8520614,125.000242 C61.8589179,124.996092 61.8972001,125.045296 61.9383392,125.156154 C61.9806211,125.265827 62.0177606,125.44486 61.9909059,125.671912 C61.9526237,126.129572 61.6143687,126.736624 61.0435634,127.25831 C60.7738736,127.529823 60.4630446,127.811415 60.2373509,128.178373 C60.0070861,128.540589 59.9208082,129.007142 60.0070861,129.489701 C60.0876502,129.973445 60.3047733,130.459561 60.5510367,130.953384 C60.8030138,131.441871 61.0767032,131.983713 61.2086912,132.589579 C61.346393,133.183589 61.3063966,133.889643 60.9087185,134.373981 C60.5196109,134.84824 60.0088002,135.053357 59.7099702,135.417352 C59.4008554,135.772453 59.2671533,136.240192 59.2471551,136.675325 C59.2265855,137.113422 59.3054355,137.525435 59.4362808,137.878166 C59.7013995,138.588962 60.0836505,139.091084 60.3276284,139.442036 C60.5796055,139.790024 60.7195928,139.985063 60.7030229,139.999291" id="Fill-122" fill="#334F55"></path>
                <path d="M84.989518,113.998349 C84.9149309,114.047556 84.5467558,112.986489 83.6998473,112.162446 C82.8640476,111.318305 81.984342,111.143655 82.0002116,111.036231 C81.9896318,110.944055 82.9587363,110.964847 83.8659493,111.874828 C84.7810971,112.770949 85.0604023,113.986567 84.989518,113.998349" id="Fill-123" fill="#E0565F"></path>
                <path d="M86.3836045,109.001011 C86.4177217,108.983719 86.637515,109.188599 86.8146618,109.595739 C86.9931208,109.996067 87.0954723,110.614375 86.8730546,111.258358 C86.6499809,111.901817 86.1651235,112.390176 85.7544053,112.661078 C85.3404066,112.937745 85.0202301,113.023155 85.0018594,112.99486 C84.9749593,112.95818 85.2433039,112.814607 85.5884122,112.521173 C85.9328643,112.231407 86.3416142,111.769248 86.5436928,111.185523 C86.7451153,110.601799 86.6919712,110.037462 86.5824026,109.647614 C86.4748023,109.254098 86.3363654,109.021446 86.3836045,109.001011" id="Fill-124" fill="#334F55"></path>
                <path d="M55.8354918,182 L55.835065,182 L56.1645082,179 L56.164935,179.000538 C56.0637976,179.955671 55.9528452,180.970567 55.8354918,182" id="Fill-125" fill="#8C8F8B"></path>
                <path d="M47,169.146305 L49.8356857,162 L60,168.275627 L50.9430887,182 C50.9430887,182 47.2592424,177.29706 47,169.146305" id="Fill-126" fill="#EA8E6C"></path>
                <path d="M57.9841819,148.574054 C62.7193027,146.077458 68.8518472,145.358505 68.8518472,145.358505 C70.6321104,148.953867 76.2413618,149.410241 79.6377294,146.956709 L82.5019145,145.002019 C82.5019145,145.002019 82.9457951,144.984673 83.7019921,145.051664 C90.4016843,145.649794 95.885298,150.69981 97.2507195,157.346834 C97.7479369,159.766272 98.1141828,162.542793 97.9672103,165.117745 C97.5950381,171.651722 90.8900122,172.242675 90.8900122,172.242675 C90.8900122,172.242675 90.545101,178.701288 90.0917384,183.918182 C89.755124,187.816199 87.751439,190.727898 84.2282483,192.359598 C81.605264,193.573802 80.158652,194.135447 76.7528023,194.684531 C68.1667659,196.070997 59.9185291,192.78128 54.4799554,186.901657 C55.4975027,180.676913 56.4694173,172.618899 56.4000795,172.258227 C56.3852638,172.182264 56.4113395,172.139199 56.4113395,172.139199 L49.7655767,166.185408 L46,162.993186 C46,162.993186 54.2648304,150.612483 57.9841819,148.574054" id="Fill-127" fill="#E63362"></path>
                <path d="M66.9994045,152.574492 C66.9754347,152.626344 66.4532349,152.187869 65.4173959,152.188372 C64.9163124,152.189379 64.2953797,152.31775 63.7857356,152.68776 C63.5317695,152.86748 63.3154704,153.122208 63.0592215,153.375929 C62.8086798,153.624113 62.4839457,153.907536 62.0233826,153.982041 C61.5628195,154.058057 61.1370697,153.879345 60.8180427,153.697612 C60.4887429,153.511851 60.2079535,153.308472 59.9191742,153.162481 C59.3553125,152.857411 58.7126929,152.886106 58.2452813,153.033607 C57.7681676,153.181107 57.4525648,153.433319 57.2722204,153.625623 C57.0924467,153.821955 57.0273858,153.954857 57.0028452,153.945796 C56.9897189,153.942272 57.0176837,153.793261 57.178624,153.565717 C57.3401349,153.3422 57.6585912,153.045689 58.1705182,152.859928 C58.6658947,152.674672 59.4043936,152.617786 60.0538618,152.952053 C60.3723181,153.106099 60.6616681,153.309478 60.9727052,153.479633 C61.2797472,153.650794 61.6244562,153.782689 61.9708772,153.723789 C62.3167276,153.670931 62.597517,153.444394 62.8429224,153.203761 C63.0923227,152.964135 63.3206068,152.700346 63.6145225,152.49898 C64.198359,152.09524 64.8826405,151.980462 65.4208202,152.002612 C65.9669898,152.024762 66.3876032,152.172766 66.6432814,152.310702 C66.9006717,152.450652 67.0091066,152.56543 66.9994045,152.574492" id="Fill-128" fill="#FAF9F6"></path>
                <path d="M73.9984243,161.996956 C73.9566446,162.053988 73.6201175,161.295589 72.6351462,160.902471 C72.1589719,160.71372 71.5225465,160.64175 70.9032909,160.920124 C70.597097,161.053879 70.2989157,161.297626 69.962961,161.524399 C69.6344464,161.746419 69.2229448,161.984056 68.7587893,161.904617 C68.2929167,161.827216 67.953528,161.436813 67.7165855,161.082395 C67.4710581,160.721188 67.2781846,160.354549 67.0566948,160.057165 C66.6320297,159.453568 66.0110571,159.245806 65.5131344,159.25667 C65.0060545,159.263459 64.6140119,159.46579 64.373063,159.643677 C64.1315419,159.826318 64.0210832,159.970937 64.0010518,159.949889 C63.9896053,159.941062 64.0703031,159.761138 64.306101,159.53097 C64.5407543,159.307592 64.9511113,159.048908 65.5045495,159.006812 C66.0431073,158.957927 66.7653814,159.165689 67.2615871,159.839897 C67.5076869,160.15833 67.7085729,160.527684 67.9426539,160.863091 C68.1727285,161.198498 68.4520231,161.498598 68.8022859,161.554952 C69.1502595,161.618096 69.4993778,161.436134 69.8198797,161.221582 C70.144388,161.009747 70.4568774,160.759889 70.8094296,160.614591 C71.5111,160.319922 72.2024686,160.433988 72.7061145,160.666871 C73.2172007,160.90315 73.5634573,161.251457 73.7557585,161.525078 C73.9497767,161.802094 74.0110155,161.988808 73.9984243,161.996956" id="Fill-129" fill="#FAF9F6"></path>
                <path d="M88.9996903,148.342008 C88.9876111,148.405164 88.3365454,148.027377 87.2651256,148.248423 C86.7475344,148.356936 86.1381417,148.631951 85.7045005,149.153274 C85.48768,149.40762 85.3288392,149.737178 85.1283255,150.074775 C84.9314355,150.404908 84.6675063,150.789585 84.2109147,150.971014 C83.7537192,151.154166 83.2675338,151.045079 82.8918725,150.910155 C82.5041321,150.774083 82.1622924,150.607007 81.8264922,150.505383 C81.1651593,150.285486 80.5086579,150.454859 80.0617297,150.718391 C79.6063461,150.984794 79.3436248,151.332725 79.2059225,151.585922 C79.0700322,151.842565 79.0362106,152.005048 79.0084286,151.99988 C78.9939336,151.998732 78.9854782,151.827063 79.0941905,151.538843 C79.2047146,151.25579 79.4583766,150.856185 79.9409383,150.541554 C80.4059852,150.22922 81.1554959,150.008174 81.9122541,150.242425 C82.280668,150.346345 82.630963,150.511125 82.9957531,150.63514 C83.3575234,150.759729 83.7476797,150.833794 84.0907273,150.694277 C84.4343788,150.561649 84.6675063,150.249315 84.8607725,149.928943 C85.0576625,149.60857 85.2267705,149.26638 85.4798285,148.979308 C85.9811129,148.405164 86.6593567,148.131297 87.2216407,148.041157 C87.7923801,147.949868 88.2652785,148.025081 88.5648412,148.124408 C88.8662158,148.224883 89.0075417,148.329377 88.9996903,148.342008" id="Fill-130" fill="#FAF9F6"></path>
                <path d="M81.9967559,158.99714 C81.9530657,159.048658 81.6975081,158.391804 80.9224565,158.022086 C80.5471998,157.843289 80.0420696,157.757678 79.5447199,157.967538 C79.2993367,158.066786 79.0533551,158.261494 78.7744562,158.443322 C78.5021407,158.620604 78.1556119,158.813039 77.7695823,158.719852 C77.3829542,158.62818 77.1142297,158.264524 76.9334841,157.947082 C76.7455565,157.621307 76.6025161,157.297804 76.4361343,157.034911 C76.1201287,156.505336 75.6377414,156.299264 75.2409389,156.281081 C74.4120226,156.249261 74.0289855,156.843991 74.0014547,156.775048 C73.9888863,156.762168 74.0565163,156.606857 74.2528228,156.414422 C74.4479324,156.226533 74.7896733,156.015915 75.2427344,156.001521 C75.6826285,155.97955 76.2709496,156.193198 76.6581762,156.804595 C76.8502932,157.09249 77.0017126,157.41978 77.1782687,157.716009 C77.3524309,158.012237 77.5619043,158.2721 77.8288333,158.33271 C78.3794492,158.455444 78.8845794,157.828894 79.4585365,157.620549 C80.0432666,157.398567 80.6034584,157.534181 81.0056473,157.763739 C81.8369576,158.247856 82.0284761,159.004716 81.9967559,158.99714" id="Fill-131" fill="#FAF9F6"></path>
                <path d="M65.9968599,166.997136 C65.9525708,167.048667 65.6970102,166.392406 64.9219494,166.021839 C64.5466883,165.844512 64.0421506,165.757364 63.544795,165.968035 C63.299409,166.067307 63.0534245,166.262064 62.7739238,166.443937 C62.5016051,166.620506 62.1550721,166.813747 61.7696365,166.720537 C61.3830039,166.628842 61.1142762,166.265095 60.9335285,165.946816 C60.7455987,165.621717 60.6025566,165.297375 60.4355744,165.035174 C60.119565,164.504709 59.6377705,164.298586 59.2409633,164.280398 C58.4120373,164.248571 58.0289956,164.843449 58.0014645,164.775246 C57.988896,164.762364 58.0559283,164.607771 58.2528356,164.41453 C58.4479474,164.226594 58.7890939,164.015166 59.2427588,164.001526 C59.6826582,163.979549 60.2709862,164.192493 60.6582173,164.804043 C60.8497381,165.09201 61.0017578,165.42014 61.178316,165.716443 C61.3524802,166.012745 61.5619561,166.271915 61.8288883,166.333297 C62.3795106,166.455304 62.8840482,165.828598 63.4586107,165.620959 C64.0433477,165.398922 64.603546,165.533811 65.0051412,165.763427 C65.8370598,166.249181 66.0279821,167.00623 65.9968599,166.997136" id="Fill-132" fill="#FAF9F6"></path>
                <path d="M80.9981158,166.685517 C80.9704662,166.744611 80.567487,166.287301 79.7538808,166.257754 C79.3597259,166.244324 78.8690914,166.355126 78.4590527,166.71305 C78.2555041,166.884961 78.0760754,167.137455 77.8619376,167.391292 C77.6530943,167.638414 77.3789508,167.925828 76.9971501,167.98828 C76.6141728,168.052075 76.2735524,167.843901 76.0252937,167.643115 C75.7687989,167.43897 75.5540727,167.21871 75.3328754,167.058886 C74.9057763,166.729166 74.4063174,166.731852 74.0321644,166.860114 C73.2532674,167.134769 73.0467773,167.772719 73.0038321,167.725041 C72.9891248,167.719669 73.0126565,167.564546 73.1467868,167.330855 C73.2815054,167.103207 73.5456479,166.802363 73.9639227,166.625751 C74.3674902,166.447796 74.9681351,166.412877 75.481713,166.785575 C75.7329131,166.956814 75.9558754,167.176403 76.1947214,167.360402 C76.4312143,167.546415 76.6912389,167.687436 76.9547931,167.641772 C77.4977855,167.5444 77.810168,166.835268 78.2919781,166.453169 C78.7796712,166.054953 79.3350177,165.964297 79.7662349,166.011304 C80.6616135,166.116062 81.0298835,166.681488 80.9981158,166.685517" id="Fill-133" fill="#FAF9F6"></path>
                <path d="M76.9978833,173.685387 C76.9667782,173.745158 76.5134381,173.287141 75.5974925,173.258263 C75.1554031,173.244832 74.6027914,173.355642 74.1415095,173.71225 C73.9131849,173.885518 73.7106709,174.138031 73.4697719,174.391888 C73.2348292,174.639029 72.9264256,174.926464 72.4969106,174.98825 C72.0667338,175.05205 71.682222,174.844532 71.4035998,174.64373 C71.1150504,174.438898 70.8734896,174.219292 70.6253107,174.059456 C70.1448363,173.72904 69.5822975,173.731726 69.161386,173.860669 C68.2858108,174.135345 68.0528535,174.772673 68.0045414,174.725662 C67.9873343,174.719618 68.0144685,174.565155 68.1653613,174.331446 C68.3169159,174.103109 68.6140688,173.802913 69.084616,173.625617 C69.5392798,173.447648 70.2143264,173.412726 70.7927487,173.785452 C71.07468,173.956705 71.3255061,174.176311 71.5942012,174.360995 C71.860249,174.546351 72.1527692,174.687382 72.4499221,174.642387 C73.0601113,174.544336 73.4108708,173.835821 73.9535553,173.453021 C74.5021962,173.054103 75.1269452,172.964783 75.6120523,173.011122 C76.618666,173.115889 77.0336211,173.681358 76.9978833,173.685387" id="Fill-134" fill="#FAF9F6"></path>
                <path d="M65.9968709,189.996826 C65.9539074,190.05208 65.6919497,189.372466 64.9150273,189.001481 C64.5390971,188.822304 64.0348733,188.742581 63.5413903,188.970698 C63.297334,189.078836 63.0544712,189.28564 62.7781923,189.479815 C62.509074,189.670044 62.1653664,189.876848 61.7798888,189.787654 C61.3932177,189.699249 61.1217126,189.325107 60.9379245,188.998324 C60.7469758,188.66207 60.600184,188.327394 60.4313138,188.057443 C60.1102813,187.510437 59.6275392,187.306001 59.2319174,187.293372 C58.404871,187.276006 58.0295375,187.902734 58.0014919,187.832484 C57.9889609,187.819065 58.0540028,187.656463 58.2485317,187.451238 C58.4406738,187.252326 58.7784143,187.026578 59.230724,187.002898 C59.6687125,186.972114 60.2576698,187.182865 60.650308,187.812751 C60.844837,188.108749 60.9993861,188.447372 61.1789972,188.752843 C61.3562214,189.058313 61.5680551,189.324317 61.8347865,189.382728 C62.3849574,189.500338 62.8814239,188.83809 63.4518831,188.610763 C64.031293,188.368439 64.5922047,188.498678 64.9949871,188.730741 C65.8291941,189.220126 66.0284968,190.00472 65.9968709,189.996826" id="Fill-135" fill="#FAF9F6"></path>
                <path d="M77.9978466,192.724389 C77.9661252,192.784085 77.520042,192.309947 76.6060671,192.267405 C76.1639491,192.24682 75.610806,192.353175 75.1455578,192.710666 C74.9149162,192.883579 74.7093875,193.138832 74.4655287,193.394771 C74.2276177,193.643162 73.9156899,193.932723 73.4861283,193.99036 C73.055245,194.048684 72.6745874,193.831857 72.3990071,193.622577 C72.1135139,193.40918 71.8756028,193.181374 71.6297614,193.01395 C71.1546003,192.670182 70.5928659,192.665379 70.1712347,192.790261 C69.2929465,193.058551 69.0517311,193.706289 69.0041489,193.657571 C68.9876273,193.65071 69.0160445,193.493578 69.1700258,193.257538 C69.3246679,193.026301 69.625361,192.723703 70.0978788,192.549418 C70.5538749,192.374446 71.228617,192.348372 71.8009252,192.73674 C72.0798098,192.916515 72.3276338,193.144321 72.5933011,193.336447 C72.856325,193.529259 73.1464443,193.678156 73.443833,193.6363 C74.0544713,193.54504 74.4146422,192.825941 74.9618376,192.442376 C75.5143198,192.043715 76.1394972,191.96069 76.6232496,192.014896 C77.6277628,192.136347 78.0335333,192.720272 77.9978466,192.724389" id="Fill-136" fill="#FAF9F6"></path>
                <path d="M38.791324,144 C39.1461979,144.426886 52,161.954845 52,161.954845 L50.1905523,163 L37,145.695023 L38.791324,144" id="Fill-137" fill="#132529"></path>
                <path d="M90.8780279,156.30936 C90.8780279,156.30936 78.5670507,177.860314 77.7354538,178.257251 C76.0967362,179.037793 57.2064126,162.466429 55.4047189,160.881105 C55.156971,160.544769 54.6441629,159.833918 53.638247,158.420701 C53.638247,158.420701 52.1475812,151.497634 50.5572193,152.029106 C48.9668574,152.561183 51.4288141,155.547604 50.3930491,158.177691 C49.3572841,160.808384 44.6136596,154.534354 44.4232221,153.970764 L43.2000045,152.348473 C43.2000045,152.348473 41.9170887,156.040291 42.0042482,157.581982 C42.2824421,162.521576 46.8857757,168.395638 46.8857757,168.395638 C46.8857757,168.395638 65.5916317,192.190044 79.7526583,192.996644 C83.8318411,193.229352 91.6218684,181.309727 96.4681739,172.500755 C99.3939861,167.180587 98.0358505,161.776789 93.185963,158.187387 L90.8780279,156.30936" id="Fill-138" fill="#F1AD92"></path>
                <path d="M43.9964034,157.999413 C43.9496565,158.021813 43.3706637,157.401078 42.8190512,156.566794 C42.2640996,155.733505 41.9535671,155.014707 42.0056564,155.000271 C42.0617526,154.984342 42.4564294,155.672776 43.0060385,156.497602 C43.5529763,157.323921 44.0471571,157.975519 43.9964034,157.999413" id="Fill-139" fill="#EA8E6C"></path>
                <path d="M89.433713,151 C88.9676027,151.28291 78,171.836605 78,171.836605 L92.1171354,183 C92.1171354,183 95.7893979,173.867206 97.726472,166.442263 C98.2526333,164.427252 97.9815458,159.042148 97.2392009,156.964781 C96.1845907,154.012702 94.5946687,154.748268 92.2126451,153.018476 L89.433713,151" id="Fill-140" fill="#E63362"></path>
                <path d="M91.9975826,182.984 C91.9782434,182.984 91.8468977,182.874 91.6124093,182.663 C91.4407736,182.505 91.2369057,182.317 91,182.098 C91.0016116,182.071 91.0032232,182.044 91.0056406,182.016 L92,182.983 C91.9991942,182.984 91.9991942,182.984 91.9975826,182.984" id="Fill-141" fill="#353837"></path>
                <path d="M90.6993507,182 C90.5975931,181.911174 90.4872121,181.814212 90.3676326,181.709791 C90.2032107,181.561296 90.0232666,181.399241 89.828375,181.223624 C89.8392981,181.204638 89.8502213,181.184974 89.8611444,181.166667 L90.703375,181.944399 C90.7016503,181.963385 90.7005005,181.981692 90.6993507,182 M79.4345203,173.666667 C78.5888499,173.134059 77.7173415,172.585019 76.8241851,172.021814 L76.703375,171.945889 L76.7794923,171.838234 C77.8227884,170.361664 78.931727,168.791603 80.0741851,167.174514 C80.1153862,167.116154 80.1565873,167.057794 80.1977884,167 C80.1998834,167.000567 80.20128,167.0017 80.203375,167.002266 C78.3116152,169.831888 76.9324253,171.90906 76.9324253,171.90906 L79.5204141,173.553912 C79.4917828,173.591308 79.4631515,173.629837 79.4345203,173.666667 M79.7321875,167.479167 C79.7313125,167.478333 79.7304375,167.4775 79.7286875,167.476667 C79.7540625,167.435833 79.7785625,167.395 79.8030625,167.354167 C79.7794375,167.396667 79.7558125,167.436667 79.7321875,167.479167" id="Fill-142" fill="#340D14"></path>
                <path d="M80.9859176,166.57 C80.9846374,166.569 80.9837839,166.567 80.9825037,166.566 C80.9935989,166.521 81.0046941,166.475 81.0157894,166.43 C81.0166429,166.431 81.0170696,166.432 81.0174963,166.433 C81.0068278,166.479 80.9961593,166.524 80.9859176,166.57" id="Fill-143" fill="#3D403E"></path>
                <path d="M89.9667289,182 C89.3369134,181.50772 88.5524165,180.895502 87.6325006,180.176475 C85.6350689,178.591035 83.0124912,176.509734 80,174.118744 C80.0239318,174.079958 80.0478636,174.039382 80.0717955,174 L90,181.949877 C89.9889096,181.965988 89.9778193,181.983292 89.9667289,182" id="Fill-144" fill="#3D2D26"></path>
                <path d="M94.5148756,150.518 C94.5048756,150.506 94.4948756,150.494 94.4838756,150.482 C94.5078756,150.502 94.5178756,150.514 94.5158756,150.517 C94.5148756,150.517 94.5148756,150.518 94.5148756,150.518" id="Fill-145" fill="#000B0F"></path>
                <path d="M90.1466993,151 L90,150.909936 C90.1305911,150.814978 90.2617575,150.725893 90.3940745,150.643661 C91.05681,150.231522 91.754063,150.001958 92.3425859,150.000979 C92.3673235,150.000489 92.3914857,150 92.4156479,150 C92.9673522,150 93.3769596,150.152717 93.6231842,150.277533 C93.7601036,150.334802 93.8458219,150.403328 93.9108299,150.43906 C93.9436215,150.459618 93.9677837,150.475281 93.982166,150.48605 C93.9884942,150.491924 93.9942471,150.497797 94,150.503671 C93.9994247,150.504161 93.9988494,150.504161 93.9971235,150.504161 C93.9746872,150.504161 93.8440961,150.429271 93.5955703,150.323054 C93.357975,150.219285 92.9840357,150.095937 92.4984899,150.095937 C92.4490148,150.095937 92.3983892,150.097406 92.3471883,150.099853 C91.7874299,150.115516 91.1287214,150.347039 90.4941752,150.758199 C90.3779663,150.833089 90.2617575,150.913852 90.1466993,151" id="Fill-146" fill="#340D14"></path>
                <path d="M91.9997655,183 L91.2619287,182.422665 L90.3859717,181.737863 L78,172.050338 C78,172.050338 79.1808976,169.861599 80.8006706,166.879996 C80.8150208,166.852532 80.8299688,166.825665 80.8449169,166.798201 C80.8610608,166.767753 80.8772047,166.739095 80.8933486,166.708646 C82.4347937,164.036904 83.9026943,161.491735 85.245629,159.16329 C85.9481884,157.952498 86.6160682,156.800813 87.2420934,155.72137 C87.8770875,154.654465 88.4122284,153.609053 89.0579851,152.752304 C89.5650237,152.06392 90.0965771,151.468674 90.6442744,151 L90.7967447,151.109855 C90.2604079,151.58032 89.7366275,152.182134 89.236764,152.881264 C88.6131305,153.730251 88.0983189,154.764917 87.4687062,155.844957 C86.8504539,156.929176 86.190945,158.085638 85.4973545,159.301802 C84.1012047,161.73652 82.5699243,164.408262 80.9615118,167.214336 C80.0036395,168.875891 79.0732715,170.490279 78.1967166,172.012724 C82.1507804,175.133438 85.5924243,177.848763 88.0791854,179.811224 C89.2953605,180.786186 90.2747581,181.57129 90.9767195,182.134296 C91.2948144,182.395798 91.5495296,182.605955 91.7450503,182.766558 C91.91785,182.912833 92.0051468,182.992836 91.9997655,183" id="Fill-147" fill="#340D14"></path>
                <path d="M89.9967559,170.997057 C89.9530657,171.049345 89.6975085,170.392343 88.9218593,170.021785 C88.5472016,169.844463 88.042072,169.757318 87.5453214,169.967983 C87.29934,170.06801 87.0533587,170.262004 86.7744601,170.443873 C86.502145,170.620437 86.1550181,170.813673 85.7695874,170.720465 C85.3829598,170.628773 85.1142357,170.264277 84.9334903,169.946765 C84.7455629,169.621674 84.6025227,169.297341 84.4355427,169.034389 C84.1201359,168.504696 83.6377492,168.299336 83.2409471,168.280391 C82.4120319,168.248564 82.0289953,168.843427 82.0014645,168.775984 C81.9888961,168.762344 82.0559275,168.607755 82.2528323,168.414519 C82.4485401,168.226588 82.7890836,168.015923 83.2427426,168.001525 C83.6832348,167.97955 84.2709566,168.192488 84.6581827,168.80478 C84.849701,169.092739 85.0017187,169.420103 85.1782746,169.716397 C85.3524366,170.012692 85.5619098,170.271855 85.8294369,170.333236 C86.3794536,170.45524 86.8845832,169.82855 87.4591381,169.620916 C88.043269,169.398885 88.6034601,169.534528 89.0056486,169.76338 C89.8369578,170.249121 90.0284761,171.006151 89.9967559,170.997057" id="Fill-148" fill="#FAF9F6"></path>
                <path d="M96.9929181,167.999075 C96.9413716,168.025552 96.8388577,167.478729 96.1924992,167.006735 C95.8797451,166.779371 95.42741,166.585393 94.9206325,166.610144 C94.6710084,166.618778 94.4016924,166.697636 94.1039968,166.758074 C93.8138305,166.816785 93.4512674,166.868014 93.110713,166.699938 C92.7695793,166.532437 92.5940895,166.196861 92.4915757,165.917117 C92.3832701,165.630467 92.3166651,165.35648 92.2158887,165.121058 C92.030553,164.651366 91.6239726,164.375652 91.2579345,164.25938 C90.491687,164.021656 90.0121307,164.357232 90.0005472,164.299672 C89.9918596,164.287009 90.086265,164.190883 90.3092471,164.100513 C90.5299125,164.014173 90.8913172,163.948554 91.3170103,164.055616 C91.7316991,164.154044 92.2355807,164.461992 92.4701462,165.009967 C92.5894561,165.270139 92.6635904,165.549307 92.7672626,165.811782 C92.8686181,166.074257 93.0099367,166.318313 93.2462398,166.431707 C93.7339045,166.664251 94.333929,166.336732 94.9119449,166.333854 C95.5021235,166.323493 95.9961592,166.566974 96.3233926,166.839234 C96.9981306,167.409657 97.0207184,168.013465 96.9929181,167.999075" id="Fill-149" fill="#FAF9F6"></path>
                <path d="M96.9929186,157.999305 C96.9413764,158.019165 96.8382919,157.609453 96.192566,157.255003 C95.8798378,157.08447 95.4275401,156.938977 94.9208046,156.957541 C94.6712011,156.964017 94.4019074,157.023164 94.1042364,157.068928 C93.8140941,157.112532 93.4509819,157.150956 93.1110347,157.024891 C92.7699293,156.899258 92.594454,156.647559 92.4913695,156.43817 C92.383652,156.223169 92.3164734,156.017234 92.2157054,155.841088 C92.030385,155.488365 91.6238383,155.281566 91.2578304,155.194357 C90.4922254,155.016053 90.0127088,155.267751 90.0005471,155.224578 C89.9918602,155.215512 90.0862578,155.143413 90.3098006,155.0752 C90.5304477,155.01044 90.8918226,154.961655 91.3169013,155.041525 C91.7315558,155.11535 92.2353957,155.346326 92.470521,155.757333 C92.589821,155.952906 92.6633701,156.162295 92.7670337,156.359164 C92.8683808,156.555601 93.0102667,156.738654 93.2459712,156.824137 C93.7335955,156.998556 94.3335704,156.75247 94.9115385,156.750311 C95.5016683,156.74254 95.9962422,156.926025 96.3234486,157.129802 C96.9981308,157.557214 97.0207167,158.010099 96.9929186,157.999305" id="Fill-150" fill="#FAF9F6"></path>
                <path d="M93.9918698,178.999035 C93.9329603,179.026091 93.8158033,178.479214 93.0771186,178.007173 C92.7196904,177.779212 92.2027435,177.585214 91.6235775,177.609968 C91.3382969,177.619178 91.0305116,177.697468 90.690293,177.758488 C90.359341,177.81663 89.9443273,177.867863 89.5551278,177.699771 C89.1652663,177.532829 88.9653714,177.196644 88.8475525,176.918025 C88.7237764,176.630771 88.6476575,176.356181 88.5324862,176.121312 C88.3206769,175.651574 87.8560204,175.375833 87.4376971,175.258974 C86.5619982,175.021226 86.0139417,175.356836 86.0007037,175.29927 C85.9901132,175.287181 86.0986654,175.191046 86.3534985,175.100667 C86.6056839,175.014318 87.0187119,174.948693 87.5052113,175.05519 C87.9791345,175.153628 88.5549909,175.461606 88.823062,176.010785 C88.9594142,176.270983 89.0441379,176.549603 89.1626187,176.812103 C89.27779,177.074029 89.4399565,177.318108 89.7100133,177.432089 C90.2673364,177.664656 90.952407,177.336529 91.613649,177.333651 C92.2881291,177.323289 92.853395,177.567945 93.2267088,177.839656 C93.9984888,178.410135 94.0236412,179.013426 93.9918698,178.999035" id="Fill-151" fill="#FAF9F6"></path>
            </g>
        </g>
    </g>
</svg>