<?xml version="1.0" encoding="UTF-8"?>
<svg width="599px" height="296px" viewBox="0 0 599 296" version="1.1" xmlns="http://www.w3.org/2000/svg" xmlns:xlink="http://www.w3.org/1999/xlink">
    <!-- Generator: Sketch 61 (89581) - https://sketch.com -->
    <title>onboarding-img</title>
    <desc>Created with Sketch.</desc>
    <defs>
        <linearGradient x1="-1.11022302e-14%" y1="50%" x2="100%" y2="50%" id="linearGradient-1">
            <stop stop-color="#E73361" offset="0%"></stop>
            <stop stop-color="#9A1675" offset="100%"></stop>
        </linearGradient>
        <linearGradient x1="0.0332298671%" y1="49.9501126%" x2="99.7463147%" y2="49.9501126%" id="linearGradient-2">
            <stop stop-color="#40D5E6" offset="0%"></stop>
            <stop stop-color="#5577FF" offset="100%"></stop>
        </linearGradient>
        <linearGradient x1="0.0818615752%" y1="50.0198519%" x2="100.129356%" y2="50.0198519%" id="linearGradient-3">
            <stop stop-color="#40D5E6" offset="0%"></stop>
            <stop stop-color="#5577FF" offset="100%"></stop>
        </linearGradient>
        <linearGradient x1="-1.11022302e-14%" y1="50%" x2="100%" y2="50%" id="linearGradient-4">
            <stop stop-color="#E73361" offset="0%"></stop>
            <stop stop-color="#9A1675" offset="100%"></stop>
        </linearGradient>
        <linearGradient x1="-0.0124444444%" y1="50.0099256%" x2="100.096222%" y2="50.0099256%" id="linearGradient-5">
            <stop stop-color="#FF9340" offset="0%"></stop>
            <stop stop-color="#FFCE45" offset="100%"></stop>
        </linearGradient>
        <linearGradient x1="-0.0124444444%" y1="49.8861386%" x2="100.096222%" y2="49.8861386%" id="linearGradient-6">
            <stop stop-color="#C97332" offset="0%"></stop>
            <stop stop-color="#FFCE45" offset="100%"></stop>
        </linearGradient>
    </defs>
    <g id="Welcome" stroke="none" stroke-width="1" fill="none" fill-rule="evenodd">
        <g id="Desktop-HD" transform="translate(-392.000000, -332.000000)" fill-rule="nonzero">
            <g id="onboarding-img" transform="translate(392.000000, 331.000000)">
                <path d="M12.5694068,215.613546 L498.492551,215.613546 C498.492551,215.613546 569.362866,215.613546 583.216494,215.613546 C591.892836,215.613546 599.187069,215.414345 599.086209,215.613546 C598.942406,215.897565 588.229371,217.393966 583.216494,224.873114 C565.273897,251.643241 369.30563,245.632417 322.304284,283.886597 C275.302938,322.140777 259.000902,264.370801 197.292683,261.182952 C135.584464,257.995104 23.13524,263.75789 21.3916417,240.414614 C20.279587,224.8497 1.85463224,219.436075 0.0853239646,216.785538 C-0.798864842,215.460967 5.74902369,215.784876 12.5694068,215.613546 Z" id="Path" fill="#EDEDED"></path>
                <g id="Group" transform="translate(63.109756, 83.353659)">
                    <path d="M6.02582496,0.600040204 C11.348637,-1.90012731 16.6714491,15.0010051 16.6714491,15.0010051 C25.8106169,27.0018092 38.4648494,11.0007371 37.2596844,28.9019365 C35.0502152,60.2040338 73.4146341,38.7025931 55.7388809,71.4047842 C38.0631277,104.106975 71.4060258,89.9060239 60.3586801,116.207786 C49.4117647,142.509548 63.5724534,173.911652 47.1018651,161.010788 C47.1018651,161.010788 32.5394548,129.208657 17.4748924,119.408001 C2.41032999,109.607344 26.5136298,97.9065599 21.7934003,84.505662 C14.964132,65.1043621 -1.50645624,65.9044157 10.3443329,45.0030153 C22.195122,24.2016215 -12.1520803,9.20061646 6.02582496,0.600040204 Z" id="Path" fill="url(#linearGradient-1)"></path>
                    <path d="M52.2238164,149.109991 C45.0932568,144.109656 36.6571019,109.10731 36.1549498,88.3059166 C35.8536585,77.6051997 32.7403156,73.2049049 29.928264,69.3046435 C27.2166428,65.5043889 24.9067432,62.3041745 26.312769,54.9036786 C28.9239598,40.7027272 22.0946915,34.6023184 22.0946915,34.5023117 L22.8981349,33.6022514 C23.1994261,33.9022715 30.2295552,40.2026936 27.517934,55.103692 C26.2123386,62.0041544 28.3213773,65.0043554 30.9325681,68.6045966 C33.6441894,72.5048579 37.0588235,77.3051796 37.3601148,88.3059166 C37.8622669,110.707418 46.4992826,143.709629 52.9268293,148.20993 L52.2238164,149.109991 Z" id="Path" fill="#FFFFFF"></path>
                    <path d="M54.9354376,151.710165 C54.0315638,151.710165 53.0272597,151.610158 51.9225251,151.410145 C49.1104735,150.810105 47.302726,149.410011 46.4992826,147.109857 C44.5911047,141.609488 49.010043,132.708892 52.7259684,128.308597 C52.8263989,128.20859 58.8522238,120.808094 58.2496413,110.607411 C58.1492109,108.907297 57.9483501,107.30719 57.8479197,105.907096 C57.3457676,101.806821 57.0444763,98.9066269 58.8522238,96.9064929 C60.3586801,95.206379 63.3715925,94.4063254 68.794835,94.4063254 C78.3357245,94.4063254 82.1520803,90.4060574 85.1649928,87.3058496 C86.4705882,86.0057625 87.6757532,84.7056754 89.1822095,83.9056218 L89.1822095,83.9056218 C93.902439,81.3054476 98.9239598,80.9054208 101.133429,83.0055615 C102.137733,84.0056285 103.041607,85.9057558 101.33429,89.5059971 C99.7274032,92.8062182 97.7187948,94.8063522 96.1119082,96.5064661 C93.902439,98.7066135 92.4964132,100.206714 93.1994261,103.206915 C93.4002869,103.906962 93.6011478,104.607009 93.8020086,105.307056 C95.3084648,110.307391 96.9153515,116.007773 88.3787661,119.808027 C86.5710187,120.608081 84.8637016,121.308128 83.4576758,121.808161 C77.4318508,124.108315 73.8163558,125.608416 69.6987088,134.208992 C68.8952654,135.909106 68.1922525,137.409207 67.4892396,139.009314 C64.0746055,146.209796 61.5638451,151.710165 54.9354376,151.710165 Z M89.5839311,84.9056888 C88.2783357,85.6057357 87.1736011,86.8058161 85.8680057,88.1059032 C82.6542324,91.4061244 78.7374462,95.6064058 68.6944046,95.6064058 C63.6728838,95.6064058 60.8608321,96.3064527 59.6556671,97.7065465 C58.2496413,99.3066537 58.5509326,102.006835 58.9526542,105.707083 C59.1535151,107.107176 59.2539455,108.707284 59.3543759,110.507404 C60.0573888,121.208121 53.830703,128.80863 53.6298422,129.10865 C50.0143472,133.408939 45.9971306,141.909508 47.7044476,146.70983 C48.4074605,148.609957 49.9139168,149.810038 52.2238164,150.210064 C60.3586801,151.810172 62.5681492,146.809837 66.2840746,138.409274 C66.9870875,136.909173 67.6901004,135.309066 68.4935438,133.608952 C72.8120516,124.608349 76.8292683,123.008242 82.8550933,120.608081 C84.3615495,120.008041 85.9684362,119.408001 87.7761836,118.607947 C95.4088953,115.207719 94.1032999,110.507404 92.5968436,105.507069 C92.3959828,104.807022 92.195122,104.106975 91.9942611,103.406928 C91.0903874,99.8066872 92.8981349,98.0065666 95.2080344,95.6064058 C96.9153515,93.9062919 98.723099,92.0061646 100.229555,88.9059568 C101.032999,87.3058496 101.635581,85.1057022 100.329986,83.8056151 C98.4218077,82.1055012 93.8020086,82.6055347 89.5839311,84.9056888 L89.5839311,84.9056888 Z" id="Shape" fill="url(#linearGradient-2)"></path>
                    <path d="M52.0229555,158.51062 L50.8177905,158.410614 C50.9182209,157.31054 52.3242468,131.208791 62.8694405,123.508275 C74.4189383,115.107712 78.0344333,106.107109 79.8421808,100.106707 C81.8507891,93.0062316 92.2955524,91.1061043 92.697274,91.0060976 L92.8981349,92.206178 C92.7977044,92.206178 82.7546628,94.1063053 80.9469154,100.506734 C79.1391679,106.70715 75.4232425,116.007773 63.5724534,124.608349 C53.5294118,131.808831 52.0229555,158.2106 52.0229555,158.51062 Z" id="Path" fill="url(#linearGradient-3)"></path>
                    <path d="M76.1262554,26.9018025 C68.5939742,24.3016282 70.2008608,38.7025931 66.9870875,49.3033034 C63.8737446,59.9040137 31.8364419,53.9036116 45.2941176,80.505394 C58.7517934,107.107176 28.3213773,89.4059904 37.3601148,112.607545 C46.4992826,135.809099 38.1635581,160.710768 48.0057389,154.310339 C57.8479197,148.009917 53.5294118,118.707954 63.8737446,115.307726 C74.1176471,111.807491 75.8249641,107.807223 65.6814921,98.3065867 C55.5380201,88.9059568 92.2955524,79.505327 83.2568149,60.4040472 C74.1176471,41.5027808 84.7632712,29.9020035 76.1262554,26.9018025 Z" id="Path" fill="url(#linearGradient-4)"></path>
                    <path d="M52.625538,153.310272 C51.7216643,149.310004 43.687231,114.307659 51.1190818,110.107377 C57.7474892,106.407129 57.5466284,91.9061579 56.5423242,78.2052399 C55.6384505,66.1044291 71.3055954,60.4040472 71.9081779,60.2040338 L72.3098996,61.3041075 C72.1090387,61.4041142 56.8436155,66.9044827 57.7474892,78.1052332 C58.8522238,92.206178 58.9526542,107.107176 51.7216643,111.107444 C45.9971306,114.307659 51.2195122,142.409542 53.7302726,153.010252 L52.625538,153.310272 Z" id="Path" fill="#FFFFFF"></path>
                    <polygon id="Path" fill="url(#linearGradient-5)" points="69.5982783 140.909441 58.9526542 181.212142 35.0502152 181.212142 24.4045911 140.909441"></polygon>
                    <path d="M69.5982783,140.909441 C69.5982783,140.909441 46.097561,145.309736 46.097561,181.312148 L35.0502152,181.312148 L24.4045911,140.909441 L69.5982783,140.909441 Z" id="Path" fill="url(#linearGradient-6)"></path>
                </g>
                <g id="Group" transform="translate(132.621951, 150.121951)">
                    <path d="M21.5121951,106.246013 C21.5121951,106.246013 20.9146341,109.618902 19.7195122,110.511726 C18.6239837,111.40455 15.6361789,111.503752 12.050813,111.305347 C8.66463415,111.106942 0.49796748,111.305347 0.398373984,110.809334 C0.298780488,110.412523 1.19512195,108.527674 7.4695122,107.138837 C13.7439024,105.75 15.7357724,105.75 16.7317073,103.86515 C17.7276423,102.079503 21.5121951,106.246013 21.5121951,106.246013 Z" id="Path" fill="#EEA886"></path>
                    <path d="M75.0934959,32.2408537 C75.0934959,32.2408537 84.1565041,35.1177298 86.945122,36.1097561 C89.7337398,37.1017824 94.3150407,40.8714822 98.2987805,46.7244371 C102.382114,52.7757974 110.150407,65.5729362 110.449187,65.8705441 C110.747967,66.168152 114.930894,72.3187148 101.585366,75.989212 C96.4065041,77.3780488 78.3800813,79.9573171 78.3800813,79.9573171 C78.3800813,79.9573171 78.1808943,75.195591 77.4837398,74.6003752 C77.4837398,74.6003752 91.4268293,70.6322702 93.9166667,69.342636 C96.804878,67.9537992 100.29065,67.0609756 98.8963415,65.7713415 C97.5020325,64.4817073 89.9329268,55.255863 89.9329268,55.255863 C89.9329268,55.255863 89.2357724,61.5056285 88.1402439,63.7872889 C87.0447154,66.0689493 86.148374,72.0211069 86.2479675,74.1043621 C86.347561,76.1876173 87.2439024,83.9254221 87.2439024,83.9254221 C87.2439024,83.9254221 82.5630081,85.3142589 79.4756098,85.1158537 C76.3882114,84.9174484 50.3943089,86.5046904 50.4939024,85.3142589 C50.8922764,80.4533302 51.2906504,79.0644934 51.7886179,77.6756567 C52.2865854,76.2868199 52.2865854,74.3027674 51.2906504,69.9378518 C50.195122,65.5729362 46.3109756,57.1407129 46.3109756,57.1407129 C46.3109756,57.1407129 41.1321138,69.7394465 40.6341463,71.2274859 C39.6382114,73.9059568 37.148374,77.0804409 35.1565041,80.6517355 C33.3638211,83.7270169 21.4126016,108.03166 21.4126016,108.03166 C21.4126016,108.03166 15.5365854,104.559568 16.5325203,103.765947 C17.6280488,102.972326 27.2886179,77.4772514 29.9776423,71.8227017 C32.8658537,65.8705441 35.8536585,53.4702158 36.351626,51.9821764 C37.148374,49.4029081 42.3272358,40.1770638 45.3150407,38.6890244 C48.3028455,37.200985 63.4410569,32.141651 63.4410569,32.141651 L75.0934959,32.141651 L75.0934959,32.2408537 Z" id="Path" fill="#E55353"></path>
                    <path d="M70.6117886,2.57926829 C70.6117886,2.57926829 79.8739837,4.06730769 78.4796748,18.4516886 C77.0853659,32.8360694 68.9186992,31.6456379 68.3211382,31.6456379 C67.8231707,31.6456379 60.1544715,31.9432458 59.5569106,14.2851782 C59.5569106,14.3843809 59.3577236,1.28963415 70.6117886,2.57926829 Z" id="Path" fill="#EEA886"></path>
                    <path d="M74.9939024,24.701454 C74.9939024,24.701454 74.695122,30.9512195 75.2926829,32.2408537 C75.8902439,33.5304878 67.5243902,37.1017824 62.5447154,32.5384615 C62.5447154,32.5384615 63.9390244,26.2886961 63.5406504,24.0070356 C63.1422764,21.7253752 74.9939024,24.701454 74.9939024,24.701454 Z" id="Path" fill="#EEA886"></path>
                    <path d="M78.5792683,14.3843809 C78.5792683,14.3843809 79.5752033,13.293152 79.9735772,14.3843809 C80.3719512,15.4756098 78.5792683,20.3365385 78.4796748,20.5349437 C78.4796748,20.5349437 78.2804878,20.9317542 78.0813008,20.733349 C77.8821138,20.5349437 78.5792683,14.3843809 78.5792683,14.3843809 Z" id="Path" fill="#EEA886"></path>
                    <path d="M59.8556911,14.1859756 C59.8556911,14.1859756 58.8597561,13.0947467 58.4613821,14.1859756 C58.0630081,15.2772045 59.7560976,20.1381332 59.7560976,20.4357411 C59.7560976,20.4357411 59.9552846,20.8325516 60.1544715,20.6341463 C60.453252,20.3365385 59.8556911,14.1859756 59.8556911,14.1859756 Z" id="Path" fill="#EEA886"></path>
                    <path d="M78.5792683,16.5668386 L77.2845528,18.3524859 C77.2845528,18.3524859 77.2845528,14.4835835 77.0853659,13.8883677 C76.8861789,13.293152 76.5873984,11.4083021 76.3882114,11.0114916 C76.1890244,10.6146811 68.8191057,13.293152 61.5487805,11.6067073 C61.5487805,11.6067073 61.847561,14.3843809 61.1504065,14.6819887 C60.453252,14.880394 60.851626,19.2453096 60.851626,19.2453096 L59.7560976,18.054878 C59.7560976,18.054878 58.0630081,6.94418386 58.4613821,5.85295497 C58.8597561,4.66252345 60.1544715,-2.28166041 74.296748,1.88484991 C74.296748,1.88484991 78.6788618,0.992026266 79.5752033,3.96810507 C80.4715447,6.84498124 78.5792683,16.5668386 78.5792683,16.5668386 Z" id="Path" fill="#434343"></path>
                    <path d="M133.953252,95.3337242 C133.654472,97.4169794 120.906504,106.345216 118.317073,108.130863 C116.325203,109.5197 114.53252,110.214118 111.445122,111.40455 C111.445122,111.40455 111.445122,111.40455 111.445122,111.40455 C104.473577,113.190197 60.9512195,126.185741 60.9512195,126.185741 C60.851626,125.788931 60.7520325,125.39212 60.5528455,124.896107 C58.9593496,125.590525 57.2662602,125.987336 56.1707317,126.284944 C54.5772358,126.780957 41.6300813,127.177767 39.0406504,127.67378 C36.4512195,128.169794 31.1727642,128.963415 28.9817073,126.979362 C26.8902439,124.99531 30.2764228,120.630394 33.2642276,119.539165 C36.2520325,118.447936 46.9085366,118.150328 48.9004065,117.951923 C50.7926829,117.753518 53.3821138,117.059099 54.5772358,117.45591 C54.9756098,117.555113 56.6686992,117.059099 58.7601626,116.364681 C58.6605691,115.57106 58.6605691,115.075047 58.6605691,115.075047 L70.1138211,111.80136 L68.0223577,91.663227 C68.0223577,91.663227 73.0020325,73.0131332 92.9207317,87.1991088 C92.9207317,87.1991088 97.402439,88.488743 98.8963415,88.8855535 C98.995935,88.8855535 99.195122,88.8855535 99.3943089,88.8855535 C102.382114,88.6871482 115.428862,84.7190432 120.20935,84.7190432 C125.288618,84.7190432 126.882114,84.4214353 128.674797,85.3142589 C130.567073,86.2070826 134.252033,93.250469 133.953252,95.3337242 Z" id="Path" fill="#2F4563"></path>
                    <path d="M113.636179,126.979362 C111.544715,128.963415 106.26626,128.169794 103.577236,127.67378 C100.987805,127.177767 88.0406504,126.780957 86.4471545,126.284944 C84.8536585,125.788931 81.7662602,125.094512 79.6747967,123.705675 C79.4756098,123.606473 79.0772358,123.408068 78.5792683,123.209662 C78.5792683,123.209662 78.5792683,123.209662 78.5792683,123.209662 L75.3922764,125.491323 L30.6747967,111.305347 C27.9857724,110.610929 25.8943089,109.420497 24.4004065,108.230066 C22.1097561,106.246013 9.06300813,97.516182 8.76422764,95.4329268 C8.46544715,93.3496717 12.25,86.2070826 14.0426829,85.3142589 C15.8353659,84.4214353 17.5284553,84.7190432 22.5081301,84.7190432 C27.5873984,84.7190432 42.2276423,89.282364 43.8211382,88.8855535 C44.5182927,88.6871482 45.9126016,87.9927298 47.3069106,87.1991088 C48.9004065,86.3062852 50.4939024,85.4134615 50.4939024,85.4134615 C72.304878,75.6916041 74.695122,91.5640244 74.695122,91.5640244 L73.4004065,111.106942 C73.4004065,111.106942 75.1930894,111.999765 77.5833333,113.090994 L88.3394309,116.166276 L86.945122,117.158302 C87.5426829,117.356707 87.9410569,117.45591 88.1402439,117.356707 C89.3353659,116.959897 91.9247967,117.654315 93.8170732,117.85272 C95.7093496,118.051126 106.465447,118.348734 109.453252,119.439962 C112.341463,120.630394 115.727642,124.99531 113.636179,126.979362 Z" id="Path" fill="#2F4563"></path>
                    <path d="M57.0670732,105.948405 C57.0670732,105.948405 42.9247967,97.516182 36.75,96.1273452 C30.8739837,94.8377111 28.7825203,92.6552533 28.7825203,92.6552533 C28.7825203,92.6552533 38.0447154,92.6552533 44.2195122,97.0201689 C48.402439,100.09545 57.0670732,105.948405 57.0670732,105.948405 Z" id="Path" fill="#23334A"></path>
                    <path d="M69.6158537,111.900563 C69.6158537,111.900563 94.2154472,99.0042214 104.27439,96.2265478 C110.050813,94.6393058 112.24187,92.7544559 112.24187,92.7544559 C112.24187,92.7544559 97.004065,94.2424953 87.7418699,99.7978424 C83.3597561,102.476313 69.6158537,111.900563 69.6158537,111.900563 Z" id="Path" fill="#23334A"></path>
                    <path d="M50.3943089,85.4134615 C50.3943089,85.4134615 50.0955285,82.9333959 50.7926829,81.4453565 C50.7926829,81.4453565 68.6199187,82.8341932 86.6463415,80.7509381 C86.6463415,80.7509381 87.6422764,82.4373827 87.1443089,83.7270169 C87.2439024,83.7270169 75.6910569,86.9015009 50.3943089,85.4134615 Z" id="Path" fill="#333333"></path>
                    <path d="M78.2804878,33.2328799 L71.6077236,43.9467636 C70.5121951,46.6252345 66.7276423,46.5260319 65.7317073,43.7483583 L59.5569106,33.5304878 C59.5569106,33.5304878 62.3455285,32.4392589 64.2378049,31.9432458 C71.5081301,30.0583959 78.2804878,33.2328799 78.2804878,33.2328799 Z" id="Path" fill="#EEA886"></path>
                    <path d="M113.636179,126.979362 C111.544715,128.963415 106.26626,128.169794 103.577236,127.67378 C100.987805,127.177767 88.0406504,126.780957 86.4471545,126.284944 C84.8536585,125.788931 81.7662602,125.094512 79.6747967,123.705675 C79.4756098,123.606473 79.0772358,123.408068 78.5792683,123.209662 L86.945122,117.257505 C87.5426829,117.45591 87.9410569,117.555113 88.1402439,117.45591 C89.3353659,117.059099 91.9247967,117.753518 93.8170732,117.951923 C95.7093496,118.150328 106.465447,118.447936 109.453252,119.539165 C112.341463,120.630394 115.727642,124.99531 113.636179,126.979362 Z" id="Path" fill="#DBDFF0"></path>
                    <path d="M60.652439,124.896107 C59.0589431,125.590525 57.3658537,125.987336 56.2703252,126.284944 C54.6768293,126.780957 41.7296748,127.177767 39.1402439,127.67378 C36.550813,128.169794 31.2723577,128.963415 29.0813008,126.979362 C26.9898374,124.99531 30.3760163,120.630394 33.3638211,119.539165 C36.351626,118.447936 47.0081301,118.150328 49,117.951923 C50.8922764,117.753518 53.4817073,117.059099 54.6768293,117.45591 C55.0752033,117.555113 56.7682927,117.059099 58.8597561,116.364681 C58.9593496,117.555113 60.652439,124.896107 60.652439,124.896107 Z" id="Path" fill="#DBDFF0"></path>
                    <path d="M69.6158537,123.606473 L93.8170732,116.463884 L89.0365854,114.975844 C89.0365854,115.075047 69.7154472,122.019231 69.6158537,123.606473 Z" id="Path" fill="#2F4563"></path>
                    <polygon id="Path" fill="#23334A" points="69.6158537 123.606473 80.9695122 120.233583 73.101626 124.796904"></polygon>
                    <polygon id="Path" fill="#2F4563" points="80.1727642 81.3461538 81.4674797 81.2469512 81.8658537 85.2150563 80.4715447 85.4134615"></polygon>
                    <polygon id="Path" fill="#2F4563" points="57.7642276 81.7429644 57.2662602 86.2070826 58.6605691 86.2070826 59.0589431 81.842167"></polygon>
                    <path d="M65.6321138,81.6437617 L65.4329268,86.1078799 C65.4329268,86.1078799 69.8150407,86.6038931 71.4085366,85.810272 L71.2093496,81.5445591 L65.6321138,81.6437617 Z" id="Path" fill="#9E9E9E"></path>
                    <path d="M47.3069106,87.1991088 C48.800813,87.2983114 58.9593496,93.1512664 61.3495935,94.5401032 C57.6646341,92.6552533 43.8211382,88.7863508 43.8211382,88.7863508 C44.5182927,88.5879456 45.9126016,87.8935272 47.3069106,87.1991088 Z" id="Path" fill="#273A54"></path>
                    <path d="M61.847561,94.8377111 C61.847561,94.8377111 61.648374,94.7385084 61.3495935,94.5401032 C61.5487805,94.6393058 61.648374,94.7385084 61.847561,94.8377111 Z" id="Path" fill="#525252"></path>
                    <path d="M99.3943089,88.7863508 C99.3943089,88.7863508 81.9654472,93.0520638 78.6788618,94.7385084 C78.7784553,94.6393058 88.1402439,87.9927298 92.9207317,87.0007036 C92.9207317,87.0007036 97.402439,88.2903377 98.8963415,88.6871482 C98.995935,88.8855535 99.195122,88.8855535 99.3943089,88.7863508 C99.3943089,88.7863508 99.3943089,88.7863508 99.3943089,88.7863508 Z" id="Path" fill="#273A54"></path>
                    <path d="M63.5406504,29.0663696 C63.5406504,29.0663696 65.6321138,31.7448405 68.9186992,31.7448405 C71.1097561,31.7448405 72.6036585,31.1496248 74.7947154,29.0663696 C74.7947154,29.0663696 73.898374,33.0344747 68.9186992,33.4312852 C68.9186992,33.3320826 65.1341463,33.6296904 63.5406504,29.0663696 Z" id="Path" fill="#A77860"></path>
                    <path d="M75.9898374,73.0131332 C75.9898374,73.0131332 74.7947154,68.3506098 74.9939024,67.5569887 C75.1930894,66.7633677 73.2012195,65.8705441 73.101626,67.9537992 C73.0020325,69.9378518 72.902439,71.2274859 72.902439,71.2274859 L75.9898374,73.0131332 Z" id="Path" fill="#EEA886"></path>
                    <path d="M72.504065,76.1876173 L66.3292683,76.1876173 C65.5325203,76.1876173 64.9349593,75.5924015 64.8353659,74.7987805 L64.1382114,61.4064259 C64.1382114,60.6128049 64.7357724,59.8191839 65.6321138,59.8191839 L73.0020325,59.7199812 C73.7987805,59.7199812 74.495935,60.4143996 74.495935,61.2080206 L73.9979675,74.6995779 C73.9979675,75.5924015 73.300813,76.1876173 72.504065,76.1876173 Z" id="Path" fill="#525252"></path>
                    <path d="M76.0894309,73.3107411 C76.0894309,73.3107411 76.1890244,72.0211069 73.699187,71.0290807 C70.4126016,69.6402439 66.0304878,68.2514071 65.3333333,68.6482176 C64.3373984,69.2434334 64.8353659,70.0370544 66.9268293,70.6322702 C69.0182927,71.2274859 69.7154472,71.4258912 69.7154472,71.4258912 C69.7154472,71.4258912 65.7317073,71.2274859 64.8353659,71.7234991 C63.9390244,72.2195122 63.9390244,73.3107411 64.6361789,73.5091463 C65.3333333,73.7075516 66.8272358,73.7075516 66.8272358,73.7075516 C66.8272358,73.7075516 65.1341463,73.8067542 65.0345528,74.5011726 C64.9349593,74.9971857 64.9349593,75.6916041 66.5284553,75.989212 C66.5284553,75.989212 65.5325203,77.2788462 67.1260163,77.9732645 C68.8191057,78.6676829 71.7073171,79.2628987 73.2012195,79.4613039 C76.2886179,79.8581144 82.1646341,78.8660882 82.1646341,78.8660882 L80.1727642,74.5011726 C80.1727642,74.5011726 78.4796748,74.9971857 77.3841463,74.6003752 C75.8902439,73.9059568 76.0894309,73.3107411 76.0894309,73.3107411 Z" id="Path" fill="#EEA886"></path>
                    <path d="M77.4837398,74.5011726 C77.4837398,74.5011726 77.3841463,77.7748593 78.3800813,79.8581144 L94.7134146,77.2788462 L91.8252033,70.8306754 L77.4837398,74.5011726 Z" id="Path" fill="#E55353"></path>
                </g>
                <g id="Group" transform="translate(312.804878, 54.085366)">
                    <g id="Path">
                        <path d="M66.1968537,101.8352 C66.1968537,101.8352 65.2043971,104.528198 64.4104319,105.026901 C63.6164666,105.425864 63.4179753,111.609784 63.3187296,112.307968 C63.219484,112.906412 63.7157122,113.504856 63.9142036,113.405115 C64.1126949,113.305375 64.7081688,110.113674 65.2043971,109.116268 C65.6013797,108.318342 65.8991167,108.01912 65.9983624,108.318342 C66.097608,108.617564 65.7006254,111.909006 65.5021341,113.704337 C65.3036428,115.300188 65.6013797,120.28722 66.395345,119.888257 C67.2885559,119.489295 69.0749778,111.809265 69.1742234,109.415489 C69.3727147,107.021714 68.8764864,103.830013 68.8764864,103.830013 L66.1968537,101.8352 Z" fill="#EEA886"></path>
                        <path d="M26.9948189,21.9429423 C26.9948189,21.9429423 24.1166948,16.5569474 25.506134,10.7719898 C26.8955732,4.98703234 33.8427693,-1.29662841 41.5839306,1.4961097 C47.0424418,3.49092264 49.3250919,10.4727679 48.5311266,14.2629125 C46.7447048,22.5413862 52.8979356,26.830234 51.4092507,31.2188224 C50.1190571,35.1087076 50.0198115,38.100927 50.9130224,38.8988522 C51.905479,39.6967774 54.9820944,42.4895155 54.6843574,45.7809568 C54.3866204,49.0723982 39.4997718,36.2058548 39.4997718,36.2058548 C39.4997718,36.2058548 31.4608735,19.8483887 26.9948189,21.9429423 Z" fill="#FCCCA2"></path>
                        <path d="M4.4660546,210.951468 C4.4660546,210.951468 -0.496228289,217.634091 0.198491315,218.731238 C0.893210919,219.828385 6.05398512,219.928126 9.22984617,218.731238 C12.4057072,217.534351 12.5049529,209.654839 13.8943921,206.363398 C14.489866,204.967029 13.1996725,200.777922 11.4132506,200.4787 C9.6268288,200.179478 7.64191564,201.077144 7.64191564,201.077144 C7.64191564,201.077144 9.52758314,205.764954 4.4660546,210.951468 Z" fill="#FCCCA2"></path>
                        <path d="M7.64191564,200.877663 C7.64191564,200.877663 6.94719604,203.57066 6.55021341,206.263657 C6.25247644,208.557692 2.67963276,213.444984 2.87812407,214.043428 C3.07661539,214.641872 7.0464417,215.240316 8.73361788,213.644465 C10.4207941,212.048615 11.4132506,207.560286 11.8102333,204.867288 C12.1079702,202.373772 12.6041985,201.077144 12.6041985,201.077144 C12.6041985,201.077144 9.22984617,199.281812 7.64191564,200.877663 Z" fill="#EEA886"></path>
                        <polygon fill="#FCCCA2" points="13.8943921 206.263657 13.8943921 213.245503 13.0011812 213.245503 13.0011812 207.859508"></polygon>
                        <path d="M47.53867,211.051208 C47.53867,211.051208 42.7748785,217.634091 43.4695981,218.731238 C44.1643177,219.828385 49.3250919,219.928126 52.5009529,218.731238 C55.676814,217.534351 55.7760596,209.654839 57.1654988,206.363398 C57.7609728,204.967029 56.4707792,200.777922 54.6843574,200.4787 C52.8979356,200.179478 50.8137767,201.176884 50.8137767,201.176884 C50.8137767,201.176884 52.6001986,205.864695 47.53867,211.051208 Z" fill="#FCCCA2"></path>
                        <path d="M50.7145311,201.077144 C50.7145311,201.077144 50.3175485,204.169104 49.7220745,206.363398 C49.1266006,208.557692 45.8514939,213.544725 46.0499852,214.143169 C46.2484765,214.741612 50.2183028,215.340056 51.905479,213.744206 C53.5926552,212.148356 54.8828487,207.660026 54.9820944,204.967029 C55.1805857,202.274032 54.5851117,200.4787 54.5851117,200.4787 C54.5851117,200.4787 52.3024616,199.381553 50.7145311,201.077144 Z" fill="#EEA886"></path>
                        <polygon fill="#FCCCA2" points="57.0662532 206.263657 57.0662532 213.245503 56.1730423 213.245503 56.1730423 207.859508"></polygon>
                        <path d="M26.3000993,92.0606169 C26.3000993,92.0606169 22.7272556,112.008746 21.734799,116.995779 C20.7423425,121.982811 18.0627097,146.120047 17.7649727,150.309155 C17.4672358,154.398521 13.2989181,169.858321 13.4974094,171.354431 C13.6959008,172.850541 7.34417867,202.274032 7.34417867,202.274032 C7.34417867,202.274032 9.52758314,204.069363 11.8102333,202.473513 C13.0011812,201.675588 22.5287643,177.239129 24.4144318,170.057803 C26.2008536,163.075957 33.9420149,148.314342 34.6367345,146.020307 C35.3314541,143.626531 39.6982631,114.402522 40.889211,113.006153 C42.0801589,111.609784 43.767335,113.804078 44.4620547,116.796297 C45.1567743,119.788517 46.6454591,146.020307 47.4394244,149.411489 C48.3326353,152.70293 47.6379157,163.973623 48.134144,169.65884 C48.6303723,175.344057 50.7145311,200.977403 50.7145311,200.977403 C50.7145311,200.977403 54.2873748,201.675588 54.6843574,201.077144 C55.08134,200.4787 58.6541837,172.451578 58.7534294,165.768955 C58.852675,158.986591 58.9519207,149.710711 59.150412,146.818232 C60.9368338,118.79111 64.3111862,115.200447 58.3564467,95.0528363 C43.8665807,45.6812162 26.3000993,92.0606169 26.3000993,92.0606169 Z" fill="#EEA886"></path>
                        <path d="M26.8955732,88.0709911 L55.676814,86.7743627 C55.676814,86.7743627 62.7232557,97.8455744 62.4255187,118.092926 C62.1277817,135.248317 60.2421142,141.531978 60.2421142,141.531978 C60.2421142,141.531978 48.7296179,150.508636 30.0714343,149.112267 C11.4132506,147.616157 10.9170223,144.224975 6.45096775,146.020307 C6.45096775,146.020307 11.8102333,136.345464 17.6657271,126.570881 C22.9257469,117.893444 22.2310273,104.228976 23.3227296,100.438831 C24.3151861,96.548946 25.1091514,91.761395 26.8955732,88.0709911 Z" fill="#1E3A5E"></path>
                        <path d="M69.3727147,104.82742 C68.9757321,104.92716 64.1126949,103.530791 64.5096775,103.231569 C64.7081688,103.131829 61.2345708,82.6849961 59.448149,73.9078192 C58.2572011,68.322343 55.2798313,56.8521686 55.2798313,56.8521686 C55.2798313,56.8521686 54.7836031,58.3482783 53.8903921,64.931161 C53.3941638,69.1202682 53.3941638,72.4117095 53.6919008,77.2990012 C53.8903921,81.6875897 54.8828487,84.6798091 55.676814,86.7743627 L26.3000993,92.0606169 C26.4985906,91.2626918 27.1933102,86.3754001 27.4910472,81.1888864 L27.4910472,81.1888864 C27.4910472,80.5904426 27.5902928,79.9919987 27.5902928,79.3935548 C27.7887842,74.3067818 27.5902928,69.2200088 26.399345,67.6241585 C23.2234839,63.4350513 22.9257469,57.4506125 23.1242382,54.1591712 C23.1242382,54.1591712 14.1921291,70.3171559 13.6959008,71.5140437 C11.8102333,75.6034102 17.3679901,74.2070412 20.4446055,74.5062631 L26.9948189,73.7083379 L25.4068884,77.9971857 L11.7109876,77.1992606 C5.35926552,76.4013354 2.97736973,72.7109315 7.54266999,63.6345326 C8.93210919,60.8417945 17.5664814,44.3845878 19.0551663,42.7887374 C20.5438511,41.1928871 26.7963276,37.6022238 32.9495584,35.6074109 C39.1027891,33.6125979 44.2635633,34.9092264 44.2635633,34.9092264 C44.2635633,34.9092264 51.8062333,36.3055954 57.6617271,38.6993709 C61.4330621,40.1954806 66.8915733,69.2200088 67.1893103,70.6163779 C68.1817668,77.8974451 69.9681887,104.627938 69.3727147,104.82742 Z" fill="#1E3A5E"></path>
                        <path d="M46.8439504,35.5076702 C46.8439504,35.5076702 43.4695981,50.4687672 37.2171216,53.361246 C37.2171216,53.361246 30.4684169,44.6838097 32.751067,35.6074109 C32.751067,35.6074109 39.9960001,32.8146728 46.8439504,35.5076702 Z" fill="#EEA886"></path>
                        <path d="M38.2095782,40.09574 C33.2472953,39.1980742 34.3389976,36.4053361 34.3389976,36.4053361 C34.3389976,36.4053361 34.5374889,34.8094857 34.6367345,32.9144134 C34.6367345,32.4157102 34.6367345,31.917007 34.6367345,31.3185631 C34.6367345,30.5206379 34.6367345,29.6229721 34.5374889,28.8250469 C34.1405063,25.5336056 43.4695981,27.5284185 43.4695981,27.5284185 C43.4695981,27.5284185 42.9733698,34.3107825 44.2635633,36.3055954 C45.5537569,38.2006677 43.1718611,40.9934058 38.2095782,40.09574 Z" fill="#EEA886"></path>
                        <path d="M28.9797321,8.47795497 C28.9797321,8.47795497 23.8189579,18.5517603 28.9797321,28.0271217 C34.1405063,37.5024832 44.2635633,23.8380146 44.8590373,22.2421642 C45.5537569,20.6463139 48.9281093,11.569915 42.0801589,8.87691756 C35.2322085,6.08417945 30.4684169,5.68521686 28.9797321,8.47795497 Z" fill="#EEA886"></path>
                        <path d="M36.2246651,72.9104128 C36.2246651,72.9104128 38.9042978,70.1176746 39.3012805,70.3171559 C39.6982631,70.5166372 38.2095782,73.409116 38.2095782,73.409116 L36.2246651,72.9104128 Z" fill="#EEA886"></path>
                        <path d="M30.7661539,12.0686183 C30.7661539,12.0686183 27.1933102,16.7564287 26.7963276,20.2473513 C26.7963276,20.2473513 25.4068884,13.6644686 29.3767147,7.38080786 C33.346541,1.09714711 43.5688437,7.08158592 44.9582829,9.57510209 C46.3477221,12.0686183 50.3175485,14.3626531 43.5688437,25.134643 C43.5688437,25.134643 31.4608735,16.656688 30.7661539,12.0686183 Z" fill="#FCCCA2"></path>
                        <path d="M39.0035435,29.0245282 C39.0035435,29.0245282 38.1103326,31.0193411 34.6367345,32.8146728 C34.6367345,32.3159695 34.6367345,31.8172663 34.6367345,31.2188224 C34.6367345,31.2188224 37.0186303,30.9196005 39.0035435,29.0245282 Z" fill="#A77860"></path>
                        <path d="M39.7975087,18.4520196 C39.7975087,18.4520196 41.7824219,21.5439797 39.9960001,24.2369772 C38.1103326,26.9299746 40.4922283,29.5232314 40.889211,32.4157102 C41.2861936,35.2084483 33.5450323,44.4843284 42.5763872,48.274473 C51.607742,52.0646176 53.1956725,42.6889968 51.905479,38.7991116 C50.6152854,35.008967 47.836407,34.4105231 47.6379157,29.5232314 C47.3401787,24.5361991 45.7522482,16.8561693 39.7975087,18.4520196 Z" fill="#FCCCA2"></path>
                        <path d="M41.3854393,83.4829213 L37.0186303,82.1862929 C36.3239107,81.9868116 35.8276824,81.1888864 36.1254194,80.4907019 L39.4997718,69.2200088 C39.6982631,68.5218243 40.4922283,68.0231211 41.1869479,68.322343 L45.5537569,69.6189714 C46.2484765,69.8184527 46.7447048,70.6163779 46.4469678,71.3145624 L43.0726154,82.5852555 C42.8741241,83.28344 42.0801589,83.7821433 41.3854393,83.4829213 Z" fill="#EB4747"></path>
                        <path d="M32.6518214,73.8080786 C32.6518214,73.8080786 33.346541,74.1073005 33.9420149,74.0075599 C35.0337172,73.7083379 35.9269281,72.4117095 37.3163673,73.1098941 C38.7058065,73.8080786 37.415613,78.5956296 36.7208934,79.2938141 C36.0261737,79.9919987 33.8427693,79.5930361 31.2623822,77.6979638 C28.4835038,75.8028915 32.6518214,73.8080786 32.6518214,73.8080786 Z" fill="#EEA886"></path>
                        <path d="M36.820139,72.9104128 C36.820139,72.9104128 39.1027891,73.1098941 41.6831762,73.6085973 C43.9658264,74.0075599 46.4469678,75.0049663 46.5462135,75.4039289 C46.6454591,75.9026322 44.2635633,75.3041883 41.9809132,75.0049663 C39.8967544,74.7057444 40.293737,75.104707 40.293737,75.104707 C40.293737,75.104707 40.1944914,75.0049663 42.3778958,75.7031509 C44.7597916,76.501076 47.0424418,77.4984825 47.1416874,78.0969264 C47.1416874,78.3961483 47.0424418,78.495889 46.1492308,78.2964077 C46.6454591,78.495889 46.6454591,78.6953703 46.6454591,78.8948516 C46.3477221,79.9919987 42.6756328,79.3935548 41.1869479,79.0943329 C42.2786502,79.2938141 43.0726154,79.5930361 42.4771415,80.0917393 C41.6831762,80.6901832 36.522402,79.5930361 34.6367345,79.3935548 C32.4533301,79.0943329 36.820139,72.9104128 36.820139,72.9104128 Z" fill="#EEA886"></path>
                        <path d="M33.7435236,79.5930361 L11.9094789,78.7951109 C4.76379157,77.3987419 2.87812407,72.7109315 7.44342433,63.6345326 C8.23738959,62.1384229 11.016268,56.8521686 13.5966551,52.2640989 L22.2310273,55.6552809 C19.9483772,59.7446474 15.9785509,66.1280488 15.4823226,67.1254552 C13.5966551,71.2148218 17.0702531,71.2148218 20.3453598,71.6137844 L33.346541,72.8106721 L33.7435236,79.5930361 Z" fill="#1E3A5E"></path>
                        <path d="M50.7145311,200.678181 C50.7145311,200.678181 51.905479,201.276625 54.7836031,200.678181 L54.9820944,201.276625 C54.9820944,201.276625 52.203216,202.174291 50.6152854,201.276625 C50.7145311,201.376366 50.5160398,201.176884 50.7145311,200.678181 Z" fill="#FCCCA2"></path>
                        <path d="M7.64191564,200.877663 C7.64191564,200.877663 8.93210919,201.675588 12.6041985,201.077144 L12.8026898,201.675588 C12.8026898,201.675588 9.32909182,202.772735 7.54266999,201.575847 C7.44342433,201.675588 7.44342433,201.476106 7.64191564,200.877663 Z" fill="#FCCCA2"></path>
                        <path d="M33.7435236,79.5930361 L27.4910472,81.1888864 C27.4910472,81.1888864 27.4910472,81.1888864 27.4910472,81.1888864 L27.4910472,81.1888864 C27.4910472,80.5904426 27.5902928,79.9919987 27.5902928,79.3935548 L33.7435236,79.5930361 Z" fill="#13243B"></path>
                    </g>
                    <path d="M41.4846849,69.9181934 C41.4846849,70.3171559 41.1869479,70.6163779 40.7899653,70.6163779 C40.3929827,70.6163779 40.0952457,70.3171559 40.0952457,69.9181934 C40.0952457,69.5192308 40.3929827,69.2200088 40.7899653,69.2200088 C41.1869479,69.2200088 41.4846849,69.5192308 41.4846849,69.9181934 Z" id="Path" fill="#48484D"></path>
                </g>
                <g id="Group" transform="translate(272.560976, 55.914634)">
                    <path d="M128.798698,114.207589 L154.037634,114.207589 C154.638561,114.207589 155.139333,113.705357 155.139333,113.102679 L155.139333,109.285714 C155.139333,108.683036 154.638561,108.180804 154.037634,108.180804 L128.798698,108.180804 L128.798698,114.207589 Z" id="Path" fill="#C44747"></path>
                    <path d="M125.393444,120.234375 L150.632381,120.234375 C151.233308,120.234375 151.73408,119.732143 151.73408,119.129464 L151.73408,115.3125 C151.73408,114.709821 151.233308,114.207589 150.632381,114.207589 L125.393444,114.207589 L125.393444,120.234375 Z" id="Path" fill="#5084C7"></path>
                    <path d="M117.381084,114.207589 L142.62002,114.207589 C143.220947,114.207589 143.721719,113.705357 143.721719,113.102679 L143.721719,109.285714 C143.721719,108.683036 143.220947,108.180804 142.62002,108.180804 L117.381084,108.180804 L117.381084,114.207589 Z" id="Path" fill="#E55353"></path>
                    <path d="M113.97583,120.234375 L139.214767,120.234375 C139.815694,120.234375 140.316466,119.732143 140.316466,119.129464 L140.316466,115.3125 C140.316466,114.709821 139.815694,114.207589 139.214767,114.207589 L113.97583,114.207589 L113.97583,120.234375 Z" id="Path" fill="#5084C7"></path>
                    <path d="M117.381084,113.604911 L141.818784,113.604911 C142.419711,113.604911 142.920483,113.102679 142.920483,112.5 L142.920483,109.888393 C142.920483,109.285714 142.419711,108.783482 141.818784,108.783482 L117.381084,108.783482 L117.381084,113.604911 Z" id="Path" fill="#FAE6DE"></path>
                    <path d="M113.97583,119.53125 L138.413531,119.53125 C139.014458,119.53125 139.51523,119.029018 139.51523,118.426339 L139.51523,116.015625 C139.51523,115.412946 139.014458,114.910714 138.413531,114.910714 L113.97583,114.910714 L113.97583,119.53125 Z" id="Path" fill="#FAE6DE"></path>
                    <polygon id="Path" fill="#EEA886" points="218.637292 208.426339 217.03482 203.203125 209.923849 204.207589 210.925395 208.928571"></polygon>
                    <polygon id="Path" fill="#EEA886" points="171.865136 208.828125 171.364364 211.741071 163.652467 210.334821 164.153239 206.015625"></polygon>
                    <path d="M190.093257,116.71875 C190.093257,116.71875 191.295111,127.064732 192.59712,137.611607 C192.897583,140.022321 193.198047,142.433036 193.49851,144.743304 C194.500055,152.377232 195.401446,158.805804 195.802064,159.910714 C196.803609,162.924107 208.421532,205.111607 208.421532,205.111607 C208.421532,205.111607 218.236674,206.116071 218.637292,204.910714 C218.637292,204.910714 210.925395,157.5 211.025549,155.792411 C211.125704,154.084821 209.523231,105.368304 209.523231,105.368304 C209.523231,105.368304 190.694184,113.90625 190.093257,116.71875 Z" id="Path" fill="#303669"></path>
                    <path d="M179.677188,101.953125 C179.677188,101.953125 169.561583,149.564732 168.660192,153.28125 C167.758801,156.897321 162.450613,207.120536 162.450613,207.120536 C162.450613,207.120536 165.655557,209.330357 173.167145,208.928571 C173.167145,208.928571 184.684913,156.294643 185.586304,154.587054 C189.191866,147.756696 201.510871,114.207589 203.213497,109.486607 C204.916124,104.765625 209.72354,100.044643 209.72354,100.044643 C209.72354,100.044643 197.304381,92.6116071 179.677188,101.953125 Z" id="Path" fill="#303669"></path>
                    <path d="M153.336552,50.7254464 C153.336552,50.7254464 146.125428,46.8080357 145.524501,47.0089286 C144.823419,47.2098214 144.723265,47.6116071 145.324192,48.0133929 C146.025273,48.4151786 152.134698,52.03125 152.134698,52.03125 C152.134698,52.03125 142.920483,48.9174107 142.419711,48.9174107 C142.119247,48.9174107 141.718629,49.7209821 142.019093,49.921875 C142.319556,50.1227679 151.333462,53.8392857 151.333462,53.8392857 C151.333462,53.8392857 142.820329,50.9263393 142.319556,51.1272321 C141.918938,51.2276786 141.718629,52.1316964 142.319556,52.3325893 C142.920483,52.6339286 150.732535,55.7477679 150.732535,55.7477679 C150.732535,55.7477679 144.422801,54.0401786 144.022183,54.4419643 C143.821874,54.6428571 143.52141,55.3459821 145.123883,55.7477679 C146.726355,56.1495536 150.632381,57.4553571 150.632381,57.4553571 L153.336552,50.7254464 Z" id="Path" fill="#EEA886"></path>
                    <path d="M160.948295,56.5513393 C160.948295,56.5513393 158.644741,55.1450893 158.744896,53.5379464 C158.84505,52.1316964 158.043814,50.3236607 157.843505,49.7209821 C157.543042,48.9174107 157.342733,46.2053571 156.441342,46.6071429 C155.539951,47.0089286 156.541497,51.1272321 156.641651,52.03125 C156.741806,52.9352679 153.637016,50.4241071 152.83578,50.5245536 C151.934389,50.5245536 148.529136,56.0491071 150.83269,57.4553571 C153.036089,58.8616071 156.341188,58.8616071 156.741806,59.1629464 C157.142424,59.4642857 158.344278,60.2678571 158.344278,60.2678571 L160.948295,56.5513393 Z" id="Path" fill="#EEA886"></path>
                    <path d="M184.684913,50.5245536 C184.684913,50.5245536 179.476879,64.0848214 178.375179,63.984375 C177.27348,63.8839286 159.445977,55.1450893 159.445977,55.1450893 C159.445977,55.1450893 156.641651,59.1629464 157.543042,59.765625 C158.744896,60.5691964 181.479969,77.7455357 183.182596,76.9419643 C184.985377,76.1383929 185.686458,65.5915179 185.686458,65.5915179 C185.686458,65.5915179 190.093257,51.1272321 184.684913,50.5245536 Z" id="Path" fill="#EEA886"></path>
                    <path d="M183.182596,29.53125 C183.182596,29.53125 183.182596,30.0334821 183.28275,30.8370536 C183.28275,31.4397321 183.382905,32.1428571 183.382905,32.9464286 C183.483059,35.0558036 183.483059,37.6674107 183.182596,38.7723214 C182.681823,40.9821429 192.496965,32.1428571 192.496965,32.1428571 C192.496965,32.1428571 191.996192,24.9107143 192.797429,16.875 C193.398356,8.83928571 183.182596,29.53125 183.182596,29.53125 Z" id="Path" fill="#EEA886"></path>
                    <path d="M178.275025,73.4263393 C178.475334,74.3303571 178.775797,75.234375 178.976106,76.2388393 C179.076261,76.7410714 179.176415,77.1428571 179.27657,77.6450893 C180.578579,84.5758929 179.476879,95.9263393 178.275025,107.176339 C178.275025,107.176339 184.885222,110.591518 210.925395,114.810268 C211.92694,80.9598214 204.415352,46.3058036 204.415352,46.3058036 C202.512416,38.9732143 198.506236,36.2611607 192.396811,31.7409635 C192.396811,31.7409635 191.795883,31.640625 183.483059,37.5669643 C182.882132,37.96875 179.977651,43.3928571 178.375179,49.3191964 C175.470699,59.8660714 176.17178,65.2901786 178.275025,73.4263393 Z" id="Path" fill="#EDDAD3"></path>
                    <path d="M183.182596,30.8370536 C183.182596,31.4397321 183.28275,32.5446429 183.28275,33.3482143 C186.487695,31.1383929 187.990012,29.0290179 188.791248,28.125 C187.389085,29.53125 183.182596,30.8370536 183.182596,30.8370536 Z" id="Path" fill="#A77860"></path>
                    <path d="M186.187231,45.1004464 C186.187231,45.1004464 188.590939,36.9642857 197.104072,40.5803571 C201.811334,42.5892857 201.911489,48.6160714 194.399901,69.2075893 C194.399901,69.2075893 189.191866,83.2700893 187.889858,84.8772321 C183.182596,90.5022321 163.352003,110.390625 160.948295,109.988839 L156.241033,107.979911 C156.241033,107.979911 166.056175,95.9263393 169.661737,91.2053571 C173.267299,86.484375 179.476879,76.3392857 179.476879,76.3392857 L186.187231,45.1004464 Z" id="Path" fill="#EEA886"></path>
                    <path d="M192.59712,137.611607 C192.897583,140.022321 193.198047,142.433036 193.49851,144.743304 C193.49851,144.743304 193.49851,144.743304 193.49851,144.743304 C197.104072,135.502232 200.809789,115.915179 200.909944,115.613839 C200.409171,116.919643 192.59712,137.611607 192.59712,137.611607 Z" id="Path" fill="#1E234D"></path>
                    <path d="M192.396811,31.8415179 C192.396811,31.8415179 180.077806,45.4017857 177.073171,55.2455357 C177.073171,55.2455357 177.974561,47.0089286 183.382905,37.6674107 C183.28275,37.6674107 187.088622,31.9419643 192.396811,31.8415179 Z" id="Path" fill="#EEA886"></path>
                    <path d="M177.073171,9.24107143 C177.073171,9.24107143 173.667917,14.9665179 173.667917,16.171875 C173.667917,17.3772321 175.070081,17.3772321 174.368999,18.6830357 C173.567763,19.9888393 172.065445,22.2991071 172.766527,23.1026786 C173.467608,23.90625 175.27039,23.5044643 175.671008,25.1116071 C176.071626,26.71875 178.074716,31.7410714 180.37827,31.7410714 C182.681823,31.7410714 190.493875,27.8236607 190.994647,26.2165179 C191.49542,24.609375 194.500055,15.6696429 195.401446,13.9620536 C196.302836,12.2544643 179.877497,3.91741071 178.475334,6.62946429 C177.073171,9.24107143 177.073171,9.24107143 177.073171,9.24107143 Z" id="Path" fill="#EEA886"></path>
                    <path d="M177.373634,8.63839286 C177.373634,8.63839286 174.969926,7.43303571 175.771162,5.02232143 C176.672553,2.61160714 178.675643,-0.602678571 183.483059,0.904017857 C188.290476,2.41071429 191.896038,5.72544643 195.100982,6.22767857 C198.406081,6.72991071 199.207317,9.94419643 196.302836,15.9709821 C193.398356,21.9977679 192.196501,24.9107143 192.196501,24.9107143 C192.196501,24.9107143 191.194956,19.6875 189.993102,19.8883929 C188.791248,20.0892857 186.688004,16.6741071 186.688004,16.6741071 L186.38754,17.578125 L184.184141,17.4776786 C184.184141,17.4776786 187.088622,11.1495536 185.586304,10.4464286 C183.983832,9.74330357 177.573943,9.34151786 177.373634,8.63839286 Z" id="Path" fill="#E8734D"></path>
                    <path d="M184.184141,17.578125 C184.184141,17.578125 182.681823,23.0022321 181.479969,23.0022321 C180.278115,23.1026786 176.071626,23.7053571 175.27039,24.4084821 C175.27039,24.4084821 174.669463,24.9107143 174.869772,25.6138393 C175.170235,26.4174107 175.871317,31.0379464 174.368999,32.5446429 C174.368999,32.5446429 175.370544,34.2522321 180.678733,32.34375 C185.886767,30.5357143 188.691094,28.0245536 188.691094,28.0245536 C188.691094,28.0245536 184.885222,20.7924107 186.287385,17.6785714 L184.184141,17.578125 Z" id="Path" fill="#E8734D"></path>
                    <path d="M186.788158,15.9709821 C186.788158,15.9709821 188.290476,13.0580357 191.094802,15.0669643 C193.097892,16.5736607 190.39372,21.3950893 188.290476,21.2946429 C186.187231,21.1941964 185.586304,18.4821429 186.788158,15.9709821 Z" id="Path" fill="#EEA886"></path>
                    <path d="M199.007008,59.3638393 L182.38136,56.3504464 C182.38136,56.3504464 183.382905,37.3660714 193.198047,38.1696429 C203.013188,38.9732143 201.611025,48.1138393 199.007008,59.3638393 Z" id="Path" fill="#EDDAD3"></path>
                    <path d="M157.042269,107.276786 C157.042269,107.276786 155.239488,108.080357 154.438252,108.080357 C153.637016,108.080357 148.428981,107.477679 147.828054,108.381696 C147.126973,109.285714 142.219402,114.308036 142.920483,115.011161 C143.621565,115.814732 144.122337,115.412946 144.422801,115.011161 C144.723265,114.609375 148.529136,111.395089 149.029908,111.395089 C149.029908,111.395089 145.624655,115.212054 146.225582,116.316964 C146.826509,117.421875 147.828054,117.220982 148.529136,117.421875 C149.130063,117.622768 150.231762,118.426339 151.333462,117.924107 C152.435162,117.421875 157.042269,112.801339 158.143969,112.098214 C159.145514,111.395089 163.852776,108.783482 163.852776,108.582589 C163.652467,108.28125 157.042269,107.276786 157.042269,107.276786 Z" id="Path" fill="#EEA886"></path>
                    <rect id="Rectangle" fill="#A1958C" transform="translate(149.092305, 175.369520) rotate(-180.000000) translate(-149.092305, -175.369520) " x="147.139292" y="126.703225" width="3.90602582" height="97.3325893"></rect>
                    <rect id="Rectangle" fill="#D9C9BD" x="0.60092705" y="120.234375" width="152.134698" height="6.52901786"></rect>
                    <rect id="Rectangle" fill="#A1958C" x="4.70726189" y="126.662946" width="3.90602582" height="97.3325893"></rect>
                    <path d="M171.364364,211.741071 C171.364364,211.741071 165.555402,210.535714 165.355093,210.334821 C165.154784,210.133929 163.95293,207.823661 163.05154,208.225446 C162.150149,208.627232 162.049994,211.439732 161.148604,211.941964 C160.247213,212.444196 153.136243,217.064732 152.335007,217.868304 C151.433617,218.671875 146.125428,218.069196 145.524501,219.575893 C144.923574,221.082589 144.823419,224.598214 152.735625,223.895089 C160.647831,223.191964 169.661737,224.698661 171.364364,223.794643 C173.06699,222.790179 171.865136,214.051339 171.364364,211.741071 Z" id="Path" fill="#565E96"></path>
                    <path d="M218.637292,208.426339 C218.637292,208.426339 212.628021,208.125 212.427712,208.024554 C212.227403,207.924107 210.624931,205.714286 209.823695,206.316964 C209.022459,206.819196 209.423077,209.631696 208.521686,210.234375 C207.72045,210.837054 201.410716,216.5625 200.709635,217.466518 C200.008553,218.470982 194.700364,218.671875 194.299746,220.279018 C193.899128,221.886161 194.399901,225.401786 202.111798,223.392857 C209.823695,221.484375 218.937755,221.383929 220.540227,220.279018 C222.042545,219.073661 219.538682,210.636161 218.637292,208.426339 Z" id="Path" fill="#565E96"></path>
                </g>
                <g id="Group" transform="translate(221.341463, 80.609756)">
                    <polygon id="Path" fill="#F4A900" points="76.5629824 0.39766702 0.492050015 0.79533404 0.688870022 56.4687169 0.787280025 68.199894 12.3012504 56.4687169 76.8582124 56.1704666"></polygon>
                    <path d="M44.4813214,30.6203606 C44.4813214,33.9011135 41.9226613,36.4859491 38.6751312,36.4859491 C35.4276011,36.4859491 32.868941,33.9011135 32.868941,30.6203606 C32.868941,27.3396076 35.4276011,24.754772 38.6751312,24.754772 C41.8242513,24.754772 44.4813214,27.4390244 44.4813214,30.6203606 Z" id="Path" fill="#FFFFFF"></path>
                    <path d="M63.572862,30.6203606 C63.572862,33.9011135 61.0142019,36.4859491 57.7666718,36.4859491 C54.5191417,36.4859491 51.9604816,33.9011135 51.9604816,30.6203606 C51.9604816,27.3396076 54.5191417,24.754772 57.7666718,24.754772 C60.9157919,24.754772 63.572862,27.3396076 63.572862,30.6203606 Z" id="Path" fill="#FFFFFF"></path>
                    <path d="M25.7834208,30.7197773 C25.7834208,34.0005302 23.2247607,36.5853659 19.9772306,36.5853659 C16.7297005,36.5853659 14.1710404,34.0005302 14.1710404,30.7197773 C14.1710404,27.4390244 16.7297005,24.8541888 19.9772306,24.8541888 C23.2247607,24.8541888 25.7834208,27.4390244 25.7834208,30.7197773 Z" id="Path" fill="#FFFFFF"></path>
                </g>
                <g id="Group" transform="translate(370.341463, 29.231707)">
                    <polygon id="Path" fill="#E63362" points="38.5281764 0.768292683 0.658536585 0.961275139 0.788896791 28.0431465 0.788896791 33.7682927 6.52474585 28.0431465 38.6585366 27.850164"></polygon>
                    <path d="M22.6585366,15.7358092 C22.6585366,17.4205222 21.310222,18.7009042 19.6922445,18.7682927 C18.0068512,18.7682927 16.7259523,17.4205222 16.6585366,15.8031977 C16.6585366,14.1184846 18.0068512,12.8381027 19.6248287,12.7707142 C21.310222,12.7033256 22.6585366,14.0510961 22.6585366,15.7358092 Z" id="Path" fill="#FFFFFF"></path>
                    <path d="M32.6585366,14.7345848 C32.6585366,16.4199781 31.310222,17.700877 29.6922445,17.7682927 C28.0068512,17.7682927 26.7259523,16.4199781 26.6585366,14.8020005 C26.6585366,13.1166073 28.0068512,11.8357084 29.6248287,11.7682927 C31.310222,11.7682927 32.6585366,13.1166073 32.6585366,14.7345848 Z" id="Path" fill="#FFFFFF"></path>
                    <path d="M13.6585366,15.7345848 C13.6585366,17.4199781 12.310222,18.700877 10.6922445,18.7682927 C9.00685119,18.7682927 7.72595232,17.4199781 7.65853659,15.8020005 C7.65853659,14.1166073 9.00685119,12.8357084 10.6248287,12.7682927 C12.310222,12.7682927 13.6585366,14.1166073 13.6585366,15.7345848 Z" id="Path" fill="#FFFFFF"></path>
                </g>
                <g id="Group" transform="translate(483.841463, 0.402439)">
                    <polygon id="Path" fill="#9B1675" points="68.9295543 0.597560976 0.158536585 0.899447768 0.387518886 50.2579383 0.387518886 60.597561 10.8443773 50.1824666 69.1585366 49.9560515"></polygon>
                    <path d="M39.1585366,27.597561 C39.1585366,30.3511842 36.9121598,32.597561 34.1585366,32.597561 C31.4049134,32.597561 29.1585366,30.3511842 29.1585366,27.597561 C29.1585366,24.8439378 31.4049134,22.597561 34.1585366,22.597561 C36.9121598,22.597561 39.1585366,24.8439378 39.1585366,27.597561 Z" id="Path" fill="#FFFFFF"></path>
                    <path d="M56.1585366,27.597561 C56.1585366,30.3511842 53.9121598,32.597561 51.1585366,32.597561 C48.4049134,32.597561 46.1585366,30.3511842 46.1585366,27.597561 C46.1585366,24.8439378 48.4049134,22.597561 51.1585366,22.597561 C53.9121598,22.597561 56.1585366,24.8439378 56.1585366,27.597561 Z" id="Path" fill="#FFFFFF"></path>
                    <path d="M22.1585366,27.597561 C22.1585366,30.3511842 19.9121598,32.597561 17.1585366,32.597561 C14.4049134,32.597561 12.1585366,30.3511842 12.1585366,27.597561 C12.1585366,24.8439378 14.4049134,22.597561 17.1585366,22.597561 C19.9121598,22.597561 22.1585366,24.771474 22.1585366,27.597561 Z" id="Path" fill="#FFFFFF"></path>
                </g>
                <path d="M140.387597,77.7225836 C141.83415,73.5034759 139.808976,68.8825485 135.758627,67.3757244 C131.708279,65.8689002 127.272183,67.978454 125.82563,72.1975617 C125.82563,72.1975617 125.632756,72.4989265 125.536319,73.3025661 C125.439882,73.6039309 125.439882,73.8048408 125.439882,74.1062056 C125.150572,76.6175792 125.150572,81.7407813 127.272183,91.5853659 C135.083569,85.5580692 138.265986,81.5398715 139.616102,79.5307726 C139.808976,79.3298627 139.905412,79.0284979 140.001849,78.827588 C140.387597,78.1244034 140.387597,77.7225836 140.387597,77.7225836 Z M131.515405,79.6312275 C129.008047,78.6266781 127.754367,75.8139397 128.622299,73.2021111 C129.586668,70.5902826 132.2869,69.2843683 134.794258,70.1884628 C137.301617,71.1930122 138.555296,74.0057507 137.687364,76.6175792 C136.722996,79.3298627 133.926327,80.635777 131.515405,79.6312275 Z" id="Shape" fill="#FFCA55"></path>
                <path d="M526.082719,200.83234 C527.529272,196.613232 525.504097,191.992305 521.453749,190.48548 C517.403401,188.978656 512.967305,191.08821 511.520752,195.307318 C511.520752,195.307318 511.327878,195.608683 511.231441,196.412322 C511.135004,196.713687 511.135004,196.914597 511.135004,197.215962 C510.845694,199.727335 510.845694,204.850537 512.967305,214.695122 C520.778691,208.667825 523.961108,204.649628 525.311224,202.640529 C525.504097,202.439619 525.600534,202.138254 525.696971,201.937344 C526.082719,201.234159 526.082719,200.83234 526.082719,200.83234 Z M517.210527,202.740984 C514.703168,201.736434 513.449489,198.923696 514.317421,196.311867 C515.28179,193.700039 517.982022,192.394124 520.48938,193.298219 C522.996739,194.302768 524.250418,197.115507 523.382486,199.727335 C522.418118,202.439619 519.621449,203.745533 517.210527,202.740984 Z" id="Shape" fill="#D1FFF7"></path>
                <g id="Group" transform="translate(194.000000, 43.500000)" fill="#9D1774">
                    <path d="M11.3457993,15.5 L5.57157099,13.1093878 C5.12739957,12.9300918 4.87358734,12.3922041 5.06394651,11.9738469 C5.25430569,11.5554898 5.82538322,11.3164286 6.26955463,11.4957245 L10.3305504,13.1691531 L13.2493911,7.01332652 C13.4397503,6.59496937 14.0108278,6.35590815 14.4549992,6.59496937 C14.8991706,6.77426529 15.1529829,7.31215305 14.8991706,7.73051019 L11.3457993,15.5 Z" id="Path"></path>
                    <path d="M18.0988672,21.4042575 C12.9078681,25.0545943 5.7393454,23.817192 2.09328646,18.6201023 C-1.55277248,13.4230127 -0.316820298,6.24607928 4.87417887,2.59574248 C10.065178,-1.05459432 17.2337007,0.182807981 20.8797596,5.37989766 C24.5876162,10.5769873 23.2898664,17.7539207 18.0988672,21.4042575 Z M5.86294061,3.8950149 C1.41351276,7.05039078 0.362953402,13.1755322 3.45283386,17.6301805 C6.60451192,22.0848288 12.7224752,23.1366208 17.1719031,20.043115 C21.6213309,16.8877391 22.6718903,10.7625977 19.5820098,6.30794939 C16.4303318,1.85330109 10.3123685,0.801509134 5.86294061,3.8950149 Z" id="Shape"></path>
                </g>
                <g id="Group" transform="translate(8.000000, 21.000000)">
                    <polygon id="Rectangle" fill="#FFC655" transform="translate(14.334622, 11.397460) rotate(11.542526) translate(-14.334622, -11.397460) " points="1.86804991 3.03499961 26.8623688 2.9455917 26.801195 19.7599202 1.80687608 19.8493281"></polygon>
                    <polygon id="Path" fill="#FFBC55" points="0.303789199 17.1990986 14.4806185 10.4387593 24.8094512 22.0705196"></polygon>
                    <polygon id="Path" fill="#FFA655" points="28.2523955 5.66675504 13.8730401 13.4212619 3.74673345 0.695917285"></polygon>
                </g>
            </g>
        </g>
    </g>
</svg>