<?xml version="1.0" encoding="UTF-8"?>
<svg width="194px" height="57px" viewBox="0 0 194 57" version="1.1" xmlns="http://www.w3.org/2000/svg" xmlns:xlink="http://www.w3.org/1999/xlink">
    <!-- Generator: Sketch 61 (89581) - https://sketch.com -->
    <title>upstack_blue_svg</title>
    <desc>Created with Sketch.</desc>
    <g id="Welcome" stroke="none" stroke-width="1" fill="none" fill-rule="evenodd">
        <g id="Desktop-HD" transform="translate(-584.000000, -103.000000)" fill="#FFFFFF">
            <g id="upstack_blue_svg" transform="translate(584.000000, 103.000000)">
                <path d="M193.403915,14.9792708 L183.994287,14.9792708 L172.580947,26.9689248 L172.580947,0.451863939 L165.61086,0.451863939 L165.61086,44.7345299 L172.580947,44.7345299 L172.580947,36.4204234 L176.240258,32.5698599 L184.952603,44.7345299 L193.665158,44.7345299 L181.206421,27.5814808 L193.403915,14.9792708 Z M98.0722476,21.3183179 L98.0722476,35.1828136 C98.0722476,37.8153235 99.2212038,38.8682425 102.049849,38.8682425 C103.022109,38.8682425 104.259628,38.692756 104.524887,38.6050128 L104.524887,44.4842354 C104.082931,44.6599344 102.668501,45.1863939 100.105115,45.1863939 C94.5363874,45.1863939 91.0890899,41.9396812 91.0890899,36.3234758 L91.0890899,21.3183179 L85.520362,21.3183179 L85.520362,15.0001665 L87.0231401,15.0001665 C90.2051784,15.0001665 91.6193938,12.9820081 91.6193938,10.3494981 L91.6193938,5.8742312 L98.0722476,5.8742312 L98.0722476,15.0001665 L104.347976,15.0001665 L104.347976,21.3183179 L98.0722476,21.3183179 Z M75.503502,27.0269936 L70.9550285,26.1530833 C69.1180266,25.8036038 67.9810673,24.6677954 67.9810673,23.0075562 C67.9810673,21.1727888 69.7304313,19.5999195 72.2670514,19.5999195 C76.2031203,19.5999195 77.5151432,22.3085972 77.7776327,24.0562063 L83.8129807,22.3085972 C83.288214,19.3378099 80.6641681,14.0077821 72.3544772,14.0077821 C66.1440654,14.0077821 61.4207404,18.3765297 61.4207404,23.6191453 C61.4207404,27.7259526 64.1324242,31.1335892 69.4679418,32.2696092 L73.8415638,33.2306778 C76.2031203,33.754897 77.3402917,34.9782868 77.3402917,36.5509446 C77.3402917,38.3859235 75.853205,39.9587928 72.8792439,39.9587928 C69.1180266,39.9587928 67.1063854,37.5995947 66.8438959,34.890917 L60.6334842,36.6383145 C60.9833994,39.9587928 64.3072757,45.6382578 72.8792439,45.6382578 C80.4891043,45.6382578 84.1628959,40.6577518 84.1628959,36.1140952 C84.0754702,31.6578085 81.1889348,28.2501718 75.503502,27.0269936 Z M36.6552546,18.7255666 C38.0482209,16.1045635 41.5309535,14.0077821 46.0581469,14.0077821 C54.8516824,14.0077821 59.8144021,20.7350517 59.7273813,29.559018 C59.7273813,38.470344 54.3293464,45.197677 45.7970845,45.197677 C41.6179743,45.197677 38.3094945,43.3629114 36.8292962,41.0913471 L36.8292962,56.0311284 L29.8642534,56.0311284 L29.8642534,14.7068079 L36.6552546,14.7068079 L36.6552546,18.7255666 Z M36.6515837,29.5534969 C36.6515837,35.207071 40.1042575,38.8602987 44.7963801,38.8602987 C49.5769888,38.8602987 52.9411765,35.2940426 52.9411765,29.5534969 C52.9411765,23.9868944 49.6656896,20.3338772 44.7963801,20.3338772 C40.0157714,20.3338772 36.6515837,23.9868944 36.6515837,29.5534969 Z M19.2809811,14.9987952 L26.347819,14.9987952 L26.4350195,14.9987952 L26.4350195,39.3532984 C26.4350195,41.4980212 26.5694183,43.1722915 26.6612751,44.317144 C26.6739742,44.4769204 26.6860383,44.6263409 26.6968326,44.7654055 L19.8915962,44.7654055 C19.7171952,44.0671236 19.6299947,42.6703486 19.6299947,41.4483553 C18.2339402,44.1544089 14.7442274,45.6382578 11.2544933,45.6382578 C4.18771894,45.6382578 0,40.3134359 0,33.7666208 L0,14.91151 L7.06677439,14.91151 L7.06677439,32.3698457 C7.06677439,36.0362482 8.81165199,39.1787279 13.0866349,39.1787279 C17.187111,39.1787279 19.2809811,36.4726743 19.2809811,32.5446275 L19.2809811,14.9987952 Z M132.226877,24.6834625 C132.226877,18.7254146 128.792239,13.5559182 119.545251,13.5559182 C112.147405,13.5559182 107.479792,18.1121298 106.951436,23.2816687 L113.468403,24.7710746 C113.732688,21.7920507 115.846328,19.3386994 119.633275,19.3386994 C123.596269,19.3386994 125.269577,21.3539901 125.269577,23.8949535 C125.269577,24.9462989 124.74122,25.8226321 123.067913,25.9978563 L115.405995,27.1368138 C110.29805,27.8379228 106.334842,30.8169468 106.334842,36.1617099 C106.334842,40.8929761 110.210026,45.1863939 116.462708,45.1863939 C121.306582,45.1863939 124.300887,42.7330426 125.709909,40.4549155 C125.709909,42.3144985 125.873138,43.4702147 125.943002,43.9647034 L125.943002,43.9649156 C125.962016,44.0994097 125.974194,44.1851126 125.974194,44.2226606 L132.579186,44.2226606 C132.491162,43.9598243 132.226877,42.1197578 132.226877,39.4035702 L132.226877,24.6834625 Z M125.339367,32.0427636 C125.339367,37.8336577 122.003094,39.7640266 117.964594,39.7640266 C115.155045,39.7640266 113.574661,37.9213921 113.574661,35.9035013 C113.574661,33.4467261 115.330549,32.2182324 117.525622,31.8672948 L125.339367,30.7267478 L125.339367,32.0427636 Z M141.5434,29.4149832 C141.5434,35.460627 145.429614,38.7900904 149.934211,38.7900904 C154.615366,38.7900904 156.734925,35.5482388 157.529866,33.182506 L163.800905,35.460627 C162.299515,40.1044807 157.794918,45.1863939 149.934211,45.1863939 C141.101789,45.1863939 134.38914,38.352031 134.38914,29.3273713 C134.38914,20.1272756 141.101789,13.5559182 149.757438,13.5559182 C157.883197,13.5559182 162.299515,18.5502619 163.535853,23.3691272 L157.088256,25.7348601 C156.470087,23.1062916 154.438594,20.1272756 149.845717,20.1272756 C145.429614,20.1272756 141.5434,23.3691272 141.5434,29.4149832 Z M30.0985155,7.91308221e-13 L37.1040724,9.48914271 L32.4929342,9.48914271 L28.3249677,5.67575032 L24.1570013,9.48914271 L19.4570136,9.48914271 L26.4627856,7.91308221e-13 L30.0985155,7.91308221e-13 Z" id="Shape"></path>
            </g>
        </g>
    </g>
</svg>